  0
SECTION
  2
HEADER
  9
$ACADVER
  1
AC1009
  9
$INSBASE
 10
0.0
 20
0.0
 30
0.0
  9
$EXTMIN
 10
0.0
 20
0.0
 30
0.0
  9
$EXTMAX
 10
0.0
 20
0.0
 30
0.0
  0
ENDSEC
  0
SECTION
  2
TABLES
  0
TABLE
  2
VPORT
 70
0
  0
ENDTAB
  0
TABLE
  2
LTYPE
 70
1
  0
LTYPE
  2
CONTINUOUS
 70
0
  3
Solid line
 72
65
 73
0
 40
0.0
  0
ENDTAB
  0
TABLE
  2
LAYER
 70
1
  0
LAYER
  2
0
 70
64
 62
7
  6
continuous
  0
ENDTAB
  0
TABLE
  2
STYLE
 70
1
  0
STYLE
  2
STANDARD
 70
0
 40
0
 41
1.0
 50
0.0
 71
0
 42
1
 3
ARIAL.TTF
 4

  0
ENDTAB
  0
TABLE
  2
VIEW
 70
0
  0
ENDTAB
  0
ENDSEC
  0
SECTION
  2
BLOCKS
  0
BLOCK
  8
0
  2
SHAPE2DVIEW
 70
0
 10
0.0
 20
0.0
 30
0.0
  3
SHAPE2DVIEW
  0
LINE
  8
0
 62
0
 10
0.0
 20
1003.0
 30
0.0
 11
0.0
 21
1060.0
 31
0.0
  0
LINE
  8
0
 62
0
 10
70.0
 20
1003.0
 30
0.0
 11
0.0
 21
1003.0
 31
0.0
  0
LINE
  8
0
 62
0
 10
3.0
 20
1060.0
 30
0.0
 11
0.0
 21
1060.0
 31
0.0
  0
LINE
  8
0
 62
0
 10
70.0
 20
1000.0
 30
0.0
 11
70.0
 21
1003.0
 31
0.0
  0
LINE
  8
0
 62
0
 10
3.0
 20
1060.0
 30
0.0
 11
3.0
 21
1120.0
 31
0.0
  0
LINE
  8
0
 62
0
 10
70.0
 20
1000.0
 30
0.0
 11
138.33
 21
1000.0
 31
0.0
  0
LINE
  8
0
 62
0
 10
3.0
 20
1120.0
 30
0.0
 11
0.0
 21
1120.0
 31
0.0
  0
LINE
  8
0
 62
0
 10
138.33
 20
1000.0
 30
0.0
 11
138.33
 21
1003.0
 31
0.0
  0
LINE
  8
0
 62
0
 10
0.0
 20
1120.0
 30
0.0
 11
0.0
 21
1180.0
 31
0.0
  0
LINE
  8
0
 62
0
 10
206.66000000000003
 20
1003.0
 30
0.0
 11
138.33
 21
1003.0
 31
0.0
  0
LINE
  8
0
 62
0
 10
3.0
 20
1180.0
 30
0.0
 11
0.0
 21
1180.0
 31
0.0
  0
LINE
  8
0
 62
0
 10
206.66000000000003
 20
1000.0
 30
0.0
 11
206.66000000000003
 21
1003.0
 31
0.0
  0
LINE
  8
0
 62
0
 10
3.0
 20
1180.0
 30
0.0
 11
3.0
 21
1240.0
 31
0.0
  0
LINE
  8
0
 62
0
 10
206.66000000000003
 20
1000.0
 30
0.0
 11
275.0
 21
1000.0
 31
0.0
  0
LINE
  8
0
 62
0
 10
3.0
 20
1240.0
 30
0.0
 11
0.0
 21
1240.0
 31
0.0
  0
LINE
  8
0
 62
0
 10
275.0
 20
1000.0
 30
0.0
 11
275.0
 21
1003.0
 31
0.0
  0
LINE
  8
0
 62
0
 10
0.0
 20
1240.0
 30
0.0
 11
0.0
 21
1300.0
 31
0.0
  0
LINE
  8
0
 62
0
 10
345.0
 20
1003.0
 30
0.0
 11
275.0
 21
1003.0
 31
0.0
  0
LINE
  8
0
 62
0
 10
0.0
 20
1300.0
 30
0.0
 11
600.0
 21
1300.0
 31
0.0
  0
LINE
  8
0
 62
0
 10
345.0
 20
1000.0
 30
0.0
 11
345.0
 21
1003.0
 31
0.0
  0
LINE
  8
0
 62
0
 10
600.0
 20
1240.0
 30
0.0
 11
600.0
 21
1300.0
 31
0.0
  0
LINE
  8
0
 62
0
 10
345.0
 20
1000.0
 30
0.0
 11
406.66
 21
1000.0
 31
0.0
  0
LINE
  8
0
 62
0
 10
600.0
 20
1240.0
 30
0.0
 11
597.0
 21
1240.0
 31
0.0
  0
LINE
  8
0
 62
0
 10
406.66
 20
1000.0
 30
0.0
 11
406.66
 21
1003.0
 31
0.0
  0
LINE
  8
0
 62
0
 10
597.0
 20
1180.0
 30
0.0
 11
597.0
 21
1240.0
 31
0.0
  0
LINE
  8
0
 62
0
 10
468.32000000000005
 20
1003.0
 30
0.0
 11
406.66
 21
1003.0
 31
0.0
  0
LINE
  8
0
 62
0
 10
600.0
 20
1180.0
 30
0.0
 11
597.0
 21
1180.0
 31
0.0
  0
LINE
  8
0
 62
0
 10
468.32000000000005
 20
1000.0
 30
0.0
 11
468.32000000000005
 21
1003.0
 31
0.0
  0
LINE
  8
0
 62
0
 10
600.0
 20
1120.0
 30
0.0
 11
600.0
 21
1180.0
 31
0.0
  0
LINE
  8
0
 62
0
 10
468.32000000000005
 20
1000.0
 30
0.0
 11
530.0
 21
1000.0
 31
0.0
  0
LINE
  8
0
 62
0
 10
600.0
 20
1120.0
 30
0.0
 11
597.0
 21
1120.0
 31
0.0
  0
LINE
  8
0
 62
0
 10
530.0
 20
1000.0
 30
0.0
 11
530.0
 21
1003.0
 31
0.0
  0
LINE
  8
0
 62
0
 10
597.0
 20
1060.0
 30
0.0
 11
597.0
 21
1120.0
 31
0.0
  0
LINE
  8
0
 62
0
 10
600.0
 20
1003.0
 30
0.0
 11
530.0
 21
1003.0
 31
0.0
  0
LINE
  8
0
 62
0
 10
600.0
 20
1060.0
 30
0.0
 11
597.0
 21
1060.0
 31
0.0
  0
LINE
  8
0
 62
0
 10
600.0
 20
1003.0
 30
0.0
 11
600.0
 21
1060.0
 31
0.0
  0
LINE
  8
0
 62
0
 10
235.0
 20
1105.0
 30
0.0
 11
140.0
 21
1105.0
 31
0.0
  0
LINE
  8
0
 62
0
 10
235.0
 20
1105.0
 30
0.0
 11
235.0
 21
1165.0
 31
0.0
  0
LINE
  8
0
 62
0
 10
235.0
 20
1165.0
 30
0.0
 11
140.0
 21
1165.0
 31
0.0
  0
LINE
  8
0
 62
0
 10
140.0
 20
1105.0
 30
0.0
 11
140.0
 21
1165.0
 31
0.0
  0
ENDBLK
  0
ENDSEC
  0
SECTION
  2
ENTITIES
  0
INSERT
  2
SHAPE2DVIEW
  8
0
 62
0
 10
0.0
 20
0.0
 30
0.0
  0
ENDSEC
  0
EOF
