  0
SECTION
  2
HEADER
  9
$ACADVER
  1
AC1014
  9
$HANDSEED
  5
FFFF
  9
$MEASUREMENT
 70
     1
  0
ENDSEC
  0
SECTION
  2
TABLES
  0
TABLE
  2
VPORT
  5
8
330
0
100
AcDbSymbolTable
 70
     4
  0
VPORT
  5
2E
330
8
100
AcDbSymbolTableRecord
100
AcDbViewportTableRecord
  2
*ACTIVE
 70
     0
 10
0.0
 20
0.0
 11
1.0
 21
1.0
 12
210.0
 22
148.5
 13
0.0
 23
0.0
 14
10.0
 24
10.0
 15
10.0
 25
10.0
 16
0.0
 26
0.0
 36
1.0
 17
0.0
 27
0.0
 37
0.0
 40
341.0
 41
1.24
 42
50.0
 43
0.0
 44
0.0
 50
0.0
 51
0.0
 71
     0
 72
   100
 73
     1
 74
     3
 75
     0
 76
     0
 77
     0
 78
     0
  0
ENDTAB
  0
TABLE
  2
LTYPE
  5
5
330
0
100
AcDbSymbolTable
 70
     1
  0
LTYPE
  5
14
330
5
100
AcDbSymbolTableRecord
100
AcDbLinetypeTableRecord
  2
BYBLOCK
 70
     0
  3

 72
    65
 73
     0
 40
0.0
  0
LTYPE
  5
15
330
5
100
AcDbSymbolTableRecord
100
AcDbLinetypeTableRecord
  2
BYLAYER
 70
     0
  3

 72
    65
 73
     0
 40
0.0
  0
LTYPE
  5
16
330
5
100
AcDbSymbolTableRecord
100
AcDbLinetypeTableRecord
  2
CONTINUOUS
 70
     0
  3
Solid line
 72
    65
 73
     0
 40
0.0
  0
ENDTAB
  0
TABLE
  2
LAYER
  5
2
100
AcDbSymbolTable
 70
1
  0
LAYER
  5
50
100
AcDbSymbolTableRecord
100
AcDbLayerTableRecord
  2
0
 70
0
  6
CONTINUOUS
  0
ENDTAB
  0
TABLE
  2
STYLE
  5
3
330
0
100
AcDbSymbolTable
 70
     1
  0
STYLE
  5
11
330
3
100
AcDbSymbolTableRecord
100
AcDbTextStyleTableRecord
  2
STANDARD
 70
     0
 40
0.0
 41
1.0
 50
0.0
 71
     0
 42
2.5
  3
txt
  4

  0
ENDTAB
  0
TABLE
  2
VIEW
  5
6
330
0
100
AcDbSymbolTable
 70
     0
  0
ENDTAB
  0
TABLE
  2
UCS
  5
7
330
0
100
AcDbSymbolTable
 70
     0
  0
ENDTAB
  0
TABLE
  2
APPID
  5
9
330
0
100
AcDbSymbolTable
 70
     2
  0
APPID
  5
12
330
9
100
AcDbSymbolTableRecord
100
AcDbRegAppTableRecord
  2
ACAD
 70
     0
  0
ENDTAB
  0
TABLE
  2
DIMSTYLE
  5
A
330
0
100
AcDbSymbolTable
 70
     1
  0
DIMSTYLE
105
27
330
A
100
AcDbSymbolTableRecord
100
AcDbDimStyleTableRecord
  2
ISO-25
 70
     0
  3

  4

  5

  6

  7

 40
1.0
 41
2.5
 42
0.625
 43
3.75
 44
1.25
 45
0.0
 46
0.0
 47
0.0
 48
0.0
140
2.5
141
2.5
142
0.0
143
0.03937007874016
144
1.0
145
0.0
146
1.0
147
0.625
 71
     0
 72
     0
 73
     0
 74
     0
 75
     0
 76
     0
 77
     1
 78
     8
170
     0
171
     3
172
     1
173
     0
174
     0
175
     0
176
     0
177
     0
178
     0
270
     2
271
     2
272
     2
273
     2
274
     3
340
11
275
     0
280
     0
281
     0
282
     0
283
     0
284
     8
285
     0
286
     0
287
     3
288
     0
  0
ENDTAB
  0
TABLE
  2
BLOCK_RECORD
  5
1
330
0
100
AcDbSymbolTable
 70
     1
  0
BLOCK_RECORD
  5
1F
330
1
100
AcDbSymbolTableRecord
100
AcDbBlockTableRecord
  2
*MODEL_SPACE
  0
BLOCK_RECORD
  5
1B
330
1
100
AcDbSymbolTableRecord
100
AcDbBlockTableRecord
  2
*PAPER_SPACE
  0
ENDTAB
  0
ENDSEC
  0
SECTION
  2
BLOCKS
  0
BLOCK
  5
20
330
1F
100
AcDbEntity
  8
0
100
AcDbBlockBegin
  2
*MODEL_SPACE
 70
     0
 10
0.0
 20
0.0
 30
0.0
  3
*MODEL_SPACE
  1

  0
ENDBLK
  5
21
330
1F
100
AcDbEntity
  8
0
100
AcDbBlockEnd
  0
BLOCK
  5
1C
330
1B
100
AcDbEntity
 67
     1
  8
0
100
AcDbBlockBegin
  2
*PAPER_SPACE
  1

  0
ENDBLK
  5
1D
330
1B
100
AcDbEntity
 67
     1
  8
0
100
AcDbBlockEnd
  0
ENDSEC
  0
SECTION
  2
ENTITIES
  0
SPLINE
  5
100
100
AcDbEntity
  8
0
 62
7
100
AcDbSpline
 70
8
 71
3
 72
8
 73
4
 74
0
 40
0
 40
0
 40
0
 40
0
 40
1
 40
1
 40
1
 40
1
 10
425.062500
 20
887.062500
 30
0.0
 10
659.053125
 20
887.166345
 30
0.0
 10
1041.946875
 20
887.166345
 30
0.0
 10
1275.937500
 20
887.062500
 30
0.0
  0
SPLINE
  5
101
100
AcDbEntity
  8
0
 62
7
100
AcDbSpline
 70
8
 71
3
 72
8
 73
4
 74
0
 40
0
 40
0
 40
0
 40
0
 40
1
 40
1
 40
1
 40
1
 10
1275.937500
 20
887.062500
 30
0.0
 10
1509.928125
 20
886.958647
 30
0.0
 10
1318.481250
 20
886.873687
 30
0.0
 10
850.500000
 20
886.873687
 30
0.0
  0
SPLINE
  5
102
100
AcDbEntity
  8
0
 62
7
100
AcDbSpline
 70
8
 71
3
 72
8
 73
4
 74
0
 40
0
 40
0
 40
0
 40
0
 40
1
 40
1
 40
1
 40
1
 10
850.500000
 20
886.873687
 30
0.0
 10
382.518750
 20
886.873687
 30
0.0
 10
191.071875
 20
886.958647
 30
0.0
 10
425.062500
 20
887.062500
 30
0.0
  0
SPLINE
  5
103
100
AcDbEntity
  8
0
 62
7
100
AcDbSpline
 70
8
 71
3
 72
8
 73
4
 74
0
 40
0
 40
0
 40
0
 40
0
 40
1
 40
1
 40
1
 40
1
 10
19.553314
 20
901.313662
 30
0.0
 10
18.138887
 20
902.034900
 30
0.0
 10
16.282636
 20
903.577823
 30
0.0
 10
15.428314
 20
904.742385
 30
0.0
  0
SPLINE
  5
104
100
AcDbEntity
  8
0
 62
7
100
AcDbSpline
 70
8
 71
3
 72
8
 73
4
 74
0
 40
0
 40
0
 40
0
 40
0
 40
1
 40
1
 40
1
 40
1
 10
15.428314
 20
904.742385
 30
0.0
 10
13.877457
 20
906.856425
 30
0.0
 10
13.874698
 20
907.021305
 30
0.0
 10
13.684302
 20
1008.992385
 30
0.0
  0
SPLINE
  5
105
100
AcDbEntity
  8
0
 62
7
100
AcDbSpline
 70
8
 71
3
 72
8
 73
4
 74
0
 40
0
 40
0
 40
0
 40
0
 40
1
 40
1
 40
1
 40
1
 10
13.684302
 20
1008.992385
 30
0.0
 10
13.504859
 20
1105.097521
 30
0.0
 10
13.571252
 20
1111.276771
 30
0.0
 10
14.809302
 20
1113.696686
 30
0.0
  0
SPLINE
  5
106
100
AcDbEntity
  8
0
 62
7
100
AcDbSpline
 70
8
 71
3
 72
8
 73
4
 74
0
 40
0
 40
0
 40
0
 40
0
 40
1
 40
1
 40
1
 40
1
 10
14.809302
 20
1113.696686
 30
0.0
 10
15.532936
 20
1115.111114
 30
0.0
 10
17.077874
 20
1116.967363
 30
0.0
 10
18.242498
 20
1117.821686
 30
0.0
  0
SPLINE
  5
107
100
AcDbEntity
  8
0
 62
7
100
AcDbSpline
 70
8
 71
3
 72
8
 73
4
 74
0
 40
0
 40
0
 40
0
 40
0
 40
1
 40
1
 40
1
 40
1
 10
18.242498
 20
1117.821686
 30
0.0
 10
20.353715
 20
1119.370392
 30
0.0
 10
20.603282
 20
1119.375000
 30
0.0
 10
102.375000
 20
1119.375000
 30
0.0
  0
SPLINE
  5
108
100
AcDbEntity
  8
0
 62
7
100
AcDbSpline
 70
8
 71
3
 72
8
 73
4
 74
0
 40
0
 40
0
 40
0
 40
0
 40
1
 40
1
 40
1
 40
1
 10
102.375000
 20
1119.375000
 30
0.0
 10
184.146720
 20
1119.375000
 30
0.0
 10
184.396283
 20
1119.370425
 30
0.0
 10
186.507502
 20
1117.821686
 30
0.0
  0
SPLINE
  5
109
100
AcDbEntity
  8
0
 62
7
100
AcDbSpline
 70
8
 71
3
 72
8
 73
4
 74
0
 40
0
 40
0
 40
0
 40
0
 40
1
 40
1
 40
1
 40
1
 10
186.507502
 20
1117.821686
 30
0.0
 10
187.672125
 20
1116.967363
 30
0.0
 10
189.215100
 20
1115.111114
 30
0.0
 10
189.936337
 20
1113.696686
 30
0.0
  0
SPLINE
  5
10a
100
AcDbEntity
  8
0
 62
7
100
AcDbSpline
 70
8
 71
3
 72
8
 73
4
 74
0
 40
0
 40
0
 40
0
 40
0
 40
1
 40
1
 40
1
 40
1
 10
189.936337
 20
1113.696686
 30
0.0
 10
191.165670
 20
1111.285805
 30
0.0
 10
191.247742
 20
1104.765722
 30
0.0
 10
191.248837
 20
1009.423410
 30
0.0
  0
LWPOLYLINE
  5
10b
100
AcDbEntity
  8
0
 62
7
100
AcDbPolyline
 90
1
 70
1
 10
425.062500
 20
887.062500
 30
0.0
  0
SPLINE
  5
10c
100
AcDbEntity
  8
0
 62
7
100
AcDbSpline
 70
8
 71
3
 72
8
 73
4
 74
0
 40
0
 40
0
 40
0
 40
0
 40
1
 40
1
 40
1
 40
1
 10
189.547890
 20
905.173410
 30
0.0
 10
185.853308
 20
899.642955
 30
0.0
 10
191.911500
 20
900.002332
 30
0.0
 10
102.375338
 20
900.002332
 30
0.0
  0
SPLINE
  5
10d
100
AcDbEntity
  8
0
 62
7
100
AcDbSpline
 70
8
 71
3
 72
8
 73
4
 74
0
 40
0
 40
0
 40
0
 40
0
 40
1
 40
1
 40
1
 40
1
 10
102.375338
 20
900.002332
 30
0.0
 10
27.454498
 20
900.002332
 30
0.0
 10
21.954559
 20
900.089415
 30
0.0
 10
19.553651
 20
901.313662
 30
0.0
  0
LWPOLYLINE
  5
10e
100
AcDbEntity
  8
0
 62
7
100
AcDbPolyline
 90
3
 70
0
 10
191.248837
 20
1009.423410
 30
0.0
 10
191.250338
 20
907.721828
 30
0.0
 10
189.547890
 20
905.173410
 30
0.0
  0
SPLINE
  5
10f
100
AcDbEntity
  8
0
 62
7
100
AcDbSpline
 70
8
 71
3
 72
8
 73
4
 74
0
 40
0
 40
0
 40
0
 40
0
 40
1
 40
1
 40
1
 40
1
 10
184.500000
 20
902.813662
 30
0.0
 10
186.001778
 20
903.563887
 30
0.0
 10
187.686113
 20
905.248222
 30
0.0
 10
188.436337
 20
906.750000
 30
0.0
  0
SPLINE
  5
110
100
AcDbEntity
  8
0
 62
7
100
AcDbSpline
 70
8
 71
3
 72
8
 73
4
 74
0
 40
0
 40
0
 40
0
 40
0
 40
1
 40
1
 40
1
 40
1
 10
188.436337
 20
906.750000
 30
0.0
 10
189.665145
 20
909.209812
 30
0.0
 10
189.747742
 20
915.689160
 30
0.0
 10
189.748837
 20
1009.711590
 30
0.0
  0
SPLINE
  5
111
100
AcDbEntity
  8
0
 62
7
100
AcDbSpline
 70
8
 71
3
 72
8
 73
4
 74
0
 40
0
 40
0
 40
0
 40
0
 40
1
 40
1
 40
1
 40
1
 10
189.748837
 20
1009.711590
 30
0.0
 10
189.750105
 20
1119.043925
 30
0.0
 10
189.964995
 20
1113.600293
 30
0.0
 10
185.533125
 20
1116.504164
 30
0.0
  0
SPLINE
  5
112
100
AcDbEntity
  8
0
 62
7
100
AcDbSpline
 70
8
 71
3
 72
8
 73
4
 74
0
 40
0
 40
0
 40
0
 40
0
 40
1
 40
1
 40
1
 40
1
 10
185.533125
 20
1116.504164
 30
0.0
 10
183.539235
 20
1117.810612
 30
0.0
 10
179.628653
 20
1117.875000
 30
0.0
 10
102.275483
 20
1117.875000
 30
0.0
  0
LWPOLYLINE
  5
113
100
AcDbEntity
  8
0
 62
7
100
AcDbPolyline
 90
2
 70
0
 10
19.553651
 20
901.313662
 30
0.0
 10
19.553314
 20
901.313662
 30
0.0
  0
SPLINE
  5
114
100
AcDbEntity
  8
0
 62
7
100
AcDbSpline
 70
8
 71
3
 72
8
 73
4
 74
0
 40
0
 40
0
 40
0
 40
0
 40
1
 40
1
 40
1
 40
1
 10
18.992498
 20
1116.303366
 30
0.0
 10
17.827874
 20
1115.438968
 30
0.0
 10
16.448345
 20
1113.457159
 30
0.0
 10
15.926876
 20
1111.899346
 30
0.0
  0
SPLINE
  5
115
100
AcDbEntity
  8
0
 62
7
100
AcDbSpline
 70
8
 71
3
 72
8
 73
4
 74
0
 40
0
 40
0
 40
0
 40
0
 40
1
 40
1
 40
1
 40
1
 10
15.926876
 20
1111.899346
 30
0.0
 10
15.177483
 20
1109.660639
 30
0.0
 10
15.020280
 20
1087.974653
 30
0.0
 10
15.176876
 20
1008.437820
 30
0.0
  0
SPLINE
  5
116
100
AcDbEntity
  8
0
 62
7
100
AcDbSpline
 70
8
 71
3
 72
8
 73
4
 74
0
 40
0
 40
0
 40
0
 40
0
 40
1
 40
1
 40
1
 40
1
 10
15.176876
 20
1008.437820
 30
0.0
 10
15.365831
 20
912.465682
 30
0.0
 10
15.438361
 20
907.711987
 30
0.0
 10
16.744108
 20
905.719335
 30
0.0
  0
SPLINE
  5
117
100
AcDbEntity
  8
0
 62
7
100
AcDbSpline
 70
8
 71
3
 72
8
 73
4
 74
0
 40
0
 40
0
 40
0
 40
0
 40
1
 40
1
 40
1
 40
1
 10
16.744108
 20
905.719335
 30
0.0
 10
19.584356
 20
901.384935
 30
0.0
 10
15.981822
 20
901.561155
 30
0.0
 10
102.375000
 20
901.530525
 30
0.0
  0
SPLINE
  5
118
100
AcDbEntity
  8
0
 62
7
100
AcDbSpline
 70
8
 71
3
 72
8
 73
4
 74
0
 40
0
 40
0
 40
0
 40
0
 40
1
 40
1
 40
1
 40
1
 10
102.375000
 20
901.530525
 30
0.0
 10
176.594790
 20
901.504200
 30
0.0
 10
182.049345
 20
901.589400
 30
0.0
 10
184.500000
 20
902.813662
 30
0.0
  0
LWPOLYLINE
  5
119
100
AcDbEntity
  8
0
 62
7
100
AcDbPolyline
 90
3
 70
0
 10
102.275483
 20
1117.875000
 30
0.0
 10
21.109996
 20
1117.875000
 30
0.0
 10
18.992498
 20
1116.303366
 30
0.0
  0
SPLINE
  5
11a
100
AcDbEntity
  8
0
 62
7
100
AcDbSpline
 70
8
 71
3
 72
8
 73
4
 74
0
 40
0
 40
0
 40
0
 40
0
 40
1
 40
1
 40
1
 40
1
 10
203.430645
 20
901.495950
 30
0.0
 10
202.086248
 20
902.315640
 30
0.0
 10
200.315640
 20
904.086248
 30
0.0
 10
199.495950
 20
905.430645
 30
0.0
  0
SPLINE
  5
11b
100
AcDbEntity
  8
0
 62
7
100
AcDbSpline
 70
8
 71
3
 72
8
 73
4
 74
0
 40
0
 40
0
 40
0
 40
0
 40
1
 40
1
 40
1
 40
1
 10
199.495950
 20
905.430645
 30
0.0
 10
198.028207
 20
907.837935
 30
0.0
 10
198.005580
 20
909.416085
 30
0.0
 10
198.003967
 20
1009.500000
 30
0.0
  0
SPLINE
  5
11c
100
AcDbEntity
  8
0
 62
7
100
AcDbSpline
 70
8
 71
3
 72
8
 73
4
 74
0
 40
0
 40
0
 40
0
 40
0
 40
1
 40
1
 40
1
 40
1
 10
198.003967
 20
1009.500000
 30
0.0
 10
198.002467
 20
1104.772641
 30
0.0
 10
198.084300
 20
1111.285750
 30
0.0
 10
199.313663
 20
1113.696686
 30
0.0
  0
SPLINE
  5
11d
100
AcDbEntity
  8
0
 62
7
100
AcDbSpline
 70
8
 71
3
 72
8
 73
4
 74
0
 40
0
 40
0
 40
0
 40
0
 40
1
 40
1
 40
1
 40
1
 10
199.313663
 20
1113.696686
 30
0.0
 10
200.034900
 20
1115.111114
 30
0.0
 10
201.577793
 20
1116.967363
 30
0.0
 10
202.742325
 20
1117.821686
 30
0.0
  0
SPLINE
  5
11e
100
AcDbEntity
  8
0
 62
7
100
AcDbSpline
 70
8
 71
3
 72
8
 73
4
 74
0
 40
0
 40
0
 40
0
 40
0
 40
1
 40
1
 40
1
 40
1
 10
202.742325
 20
1117.821686
 30
0.0
 10
204.848955
 20
1119.367156
 30
0.0
 10
205.267463
 20
1119.375968
 30
0.0
 10
285.617325
 20
1119.566785
 30
0.0
  0
SPLINE
  5
11f
100
AcDbEntity
  8
0
 62
7
100
AcDbSpline
 70
8
 71
3
 72
8
 73
4
 74
0
 40
0
 40
0
 40
0
 40
0
 40
1
 40
1
 40
1
 40
1
 10
285.617325
 20
1119.566785
 30
0.0
 10
375.795945
 20
1119.780943
 30
0.0
 10
369.584655
 20
1120.134450
 30
0.0
 10
373.297552
 20
1114.576588
 30
0.0
  0
LWPOLYLINE
  5
120
100
AcDbEntity
  8
0
 62
7
100
AcDbPolyline
 90
1
 70
1
 10
184.500000
 20
902.813662
 30
0.0
  0
SPLINE
  5
121
100
AcDbEntity
  8
0
 62
7
100
AcDbSpline
 70
8
 71
3
 72
8
 73
4
 74
0
 40
0
 40
0
 40
0
 40
0
 40
1
 40
1
 40
1
 40
1
 10
374.997000
 20
1009.951590
 30
0.0
 10
374.994000
 20
909.418117
 30
0.0
 10
374.971650
 20
907.838048
 30
0.0
 10
373.503855
 20
905.430645
 30
0.0
  0
SPLINE
  5
122
100
AcDbEntity
  8
0
 62
7
100
AcDbSpline
 70
8
 71
3
 72
8
 73
4
 74
0
 40
0
 40
0
 40
0
 40
0
 40
1
 40
1
 40
1
 40
1
 10
373.503855
 20
905.430645
 30
0.0
 10
372.684165
 20
904.086248
 30
0.0
 10
370.913557
 20
902.315640
 30
0.0
 10
369.569160
 20
901.495950
 30
0.0
  0
SPLINE
  5
123
100
AcDbEntity
  8
0
 62
7
100
AcDbSpline
 70
8
 71
3
 72
8
 73
4
 74
0
 40
0
 40
0
 40
0
 40
0
 40
1
 40
1
 40
1
 40
1
 10
369.569160
 20
901.495950
 30
0.0
 10
367.170105
 20
900.033225
 30
0.0
 10
365.630565
 20
900.005610
 30
0.0
 10
286.499805
 20
900.005610
 30
0.0
  0
SPLINE
  5
124
100
AcDbEntity
  8
0
 62
7
100
AcDbSpline
 70
8
 71
3
 72
8
 73
4
 74
0
 40
0
 40
0
 40
0
 40
0
 40
1
 40
1
 40
1
 40
1
 10
286.499805
 20
900.005610
 30
0.0
 10
207.369045
 20
900.005610
 30
0.0
 10
205.829505
 20
900.033210
 30
0.0
 10
203.430450
 20
901.495950
 30
0.0
  0
LWPOLYLINE
  5
125
100
AcDbEntity
  8
0
 62
7
100
AcDbPolyline
 90
3
 70
0
 10
373.297552
 20
1114.576588
 30
0.0
 10
375.000000
 20
1112.028176
 30
0.0
 10
374.997000
 20
1009.951590
 30
0.0
  0
SPLINE
  5
126
100
AcDbEntity
  8
0
 62
7
100
AcDbSpline
 70
8
 71
3
 72
8
 73
4
 74
0
 40
0
 40
0
 40
0
 40
0
 40
1
 40
1
 40
1
 40
1
 10
367.882665
 20
902.579865
 30
0.0
 10
369.304132
 20
903.173797
 30
0.0
 10
371.148285
 20
904.776922
 30
0.0
 10
371.980778
 20
906.142365
 30
0.0
  0
SPLINE
  5
127
100
AcDbEntity
  8
0
 62
7
100
AcDbSpline
 70
8
 71
3
 72
8
 73
4
 74
0
 40
0
 40
0
 40
0
 40
0
 40
1
 40
1
 40
1
 40
1
 10
371.980778
 20
906.142365
 30
0.0
 10
373.479173
 20
908.600040
 30
0.0
 10
373.494420
 20
909.643710
 30
0.0
 10
373.497195
 20
1009.951590
 30
0.0
  0
LWPOLYLINE
  5
128
100
AcDbEntity
  8
0
 62
7
100
AcDbPolyline
 90
2
 70
0
 10
203.430450
 20
901.495950
 30
0.0
 10
203.430645
 20
901.495950
 30
0.0
  0
SPLINE
  5
129
100
AcDbEntity
  8
0
 62
7
100
AcDbSpline
 70
8
 71
3
 72
8
 73
4
 74
0
 40
0
 40
0
 40
0
 40
0
 40
1
 40
1
 40
1
 40
1
 10
371.785080
 20
1113.826588
 30
0.0
 10
370.712370
 20
1115.420666
 30
0.0
 10
368.989868
 20
1116.731059
 30
0.0
 10
367.185383
 20
1117.325804
 30
0.0
  0
SPLINE
  5
12a
100
AcDbEntity
  8
0
 62
7
100
AcDbSpline
 70
8
 71
3
 72
8
 73
4
 74
0
 40
0
 40
0
 40
0
 40
0
 40
1
 40
1
 40
1
 40
1
 10
367.185383
 20
1117.325804
 30
0.0
 10
364.913505
 20
1118.074599
 30
0.0
 10
347.463877
 20
1118.233945
 30
0.0
 10
285.054540
 20
1118.075804
 30
0.0
  0
SPLINE
  5
12b
100
AcDbEntity
  8
0
 62
7
100
AcDbSpline
 70
8
 71
3
 72
8
 73
4
 74
0
 40
0
 40
0
 40
0
 40
0
 40
1
 40
1
 40
1
 40
1
 10
285.054540
 20
1118.075804
 30
0.0
 10
209.751045
 20
1117.884990
 30
0.0
 10
205.704413
 20
1117.806799
 30
0.0
 10
203.716597
 20
1116.504164
 30
0.0
  0
SPLINE
  5
12c
100
AcDbEntity
  8
0
 62
7
100
AcDbSpline
 70
8
 71
3
 72
8
 73
4
 74
0
 40
0
 40
0
 40
0
 40
0
 40
1
 40
1
 40
1
 40
1
 10
203.716597
 20
1116.504164
 30
0.0
 10
199.285042
 20
1113.600118
 30
0.0
 10
199.499895
 20
1119.043168
 30
0.0
 10
199.501162
 20
1009.711590
 30
0.0
  0
SPLINE
  5
12d
100
AcDbEntity
  8
0
 62
7
100
AcDbSpline
 70
8
 71
3
 72
8
 73
4
 74
0
 40
0
 40
0
 40
0
 40
0
 40
1
 40
1
 40
1
 40
1
 10
199.501162
 20
1009.711590
 30
0.0
 10
199.501912
 20
915.689160
 30
0.0
 10
199.584855
 20
909.209812
 30
0.0
 10
200.813662
 20
906.750000
 30
0.0
  0
SPLINE
  5
12e
100
AcDbEntity
  8
0
 62
7
100
AcDbSpline
 70
8
 71
3
 72
8
 73
4
 74
0
 40
0
 40
0
 40
0
 40
0
 40
1
 40
1
 40
1
 40
1
 10
200.813662
 20
906.750000
 30
0.0
 10
203.605237
 20
901.161893
 30
0.0
 10
198.056040
 20
901.502467
 30
0.0
 10
286.336590
 20
901.501162
 30
0.0
  0
SPLINE
  5
12f
100
AcDbEntity
  8
0
 62
7
100
AcDbSpline
 70
8
 71
3
 72
8
 73
4
 74
0
 40
0
 40
0
 40
0
 40
0
 40
1
 40
1
 40
1
 40
1
 10
286.336590
 20
901.501162
 30
0.0
 10
353.363182
 20
901.500413
 30
0.0
 10
365.688825
 20
901.663222
 30
0.0
 10
367.882665
 20
902.579865
 30
0.0
  0
LWPOLYLINE
  5
130
100
AcDbEntity
  8
0
 62
7
100
AcDbPolyline
 90
3
 70
0
 10
373.497195
 20
1009.951590
 30
0.0
 10
373.500000
 20
1111.278176
 30
0.0
 10
371.785080
 20
1113.826588
 30
0.0
  0
SPLINE
  5
131
100
AcDbEntity
  8
0
 62
7
100
AcDbSpline
 70
8
 71
3
 72
8
 73
4
 74
0
 40
0
 40
0
 40
0
 40
0
 40
1
 40
1
 40
1
 40
1
 10
387.202267
 20
901.111942
 30
0.0
 10
385.869772
 20
901.691213
 30
0.0
 10
384.099157
 20
903.281130
 30
0.0
 10
383.267572
 20
904.645088
 30
0.0
  0
SPLINE
  5
132
100
AcDbEntity
  8
0
 62
7
100
AcDbSpline
 70
8
 71
3
 72
8
 73
4
 74
0
 40
0
 40
0
 40
0
 40
0
 40
1
 40
1
 40
1
 40
1
 10
383.267572
 20
904.645088
 30
0.0
 10
381.771045
 20
907.099680
 30
0.0
 10
381.755610
 20
908.174003
 30
0.0
 10
381.755610
 20
1009.875000
 30
0.0
  0
SPLINE
  5
133
100
AcDbEntity
  8
0
 62
7
100
AcDbSpline
 70
8
 71
3
 72
8
 73
4
 74
0
 40
0
 40
0
 40
0
 40
0
 40
1
 40
1
 40
1
 40
1
 10
381.755610
 20
1009.875000
 30
0.0
 10
381.755610
 20
1110.705815
 30
0.0
 10
381.783135
 20
1112.670161
 30
0.0
 10
383.229818
 20
1115.042831
 30
0.0
  0
SPLINE
  5
134
100
AcDbEntity
  8
0
 62
7
100
AcDbSpline
 70
8
 71
3
 72
8
 73
4
 74
0
 40
0
 40
0
 40
0
 40
0
 40
1
 40
1
 40
1
 40
1
 10
383.229818
 20
1115.042831
 30
0.0
 10
386.244023
 20
1119.986378
 30
0.0
 10
381.892988
 20
1119.750000
 30
0.0
 10
469.875000
 20
1119.750000
 30
0.0
  0
SPLINE
  5
135
100
AcDbEntity
  8
0
 62
7
100
AcDbSpline
 70
8
 71
3
 72
8
 73
4
 74
0
 40
0
 40
0
 40
0
 40
0
 40
1
 40
1
 40
1
 40
1
 10
469.875000
 20
1119.750000
 30
0.0
 10
557.857012
 20
1119.750000
 30
0.0
 10
553.505977
 20
1119.986378
 30
0.0
 10
556.520183
 20
1115.042831
 30
0.0
  0
SPLINE
  5
136
100
AcDbEntity
  8
0
 62
7
100
AcDbSpline
 70
8
 71
3
 72
8
 73
4
 74
0
 40
0
 40
0
 40
0
 40
0
 40
1
 40
1
 40
1
 40
1
 10
556.520183
 20
1115.042831
 30
0.0
 10
557.966858
 20
1112.670161
 30
0.0
 10
557.994390
 20
1110.705815
 30
0.0
 10
557.994390
 20
1009.875000
 30
0.0
  0
SPLINE
  5
137
100
AcDbEntity
  8
0
 62
7
100
AcDbSpline
 70
8
 71
3
 72
8
 73
4
 74
0
 40
0
 40
0
 40
0
 40
0
 40
1
 40
1
 40
1
 40
1
 10
557.994390
 20
1009.875000
 30
0.0
 10
557.994390
 20
908.136930
 30
0.0
 10
557.979465
 20
907.100550
 30
0.0
 10
556.480778
 20
904.642365
 30
0.0
  0
SPLINE
  5
138
100
AcDbEntity
  8
0
 62
7
100
AcDbSpline
 70
8
 71
3
 72
8
 73
4
 74
0
 40
0
 40
0
 40
0
 40
0
 40
1
 40
1
 40
1
 40
1
 10
556.480778
 20
904.642365
 30
0.0
 10
553.506045
 20
899.763225
 30
0.0
 10
557.903768
 20
899.997030
 30
0.0
 10
469.711590
 20
900.029355
 30
0.0
  0
SPLINE
  5
139
100
AcDbEntity
  8
0
 62
7
100
AcDbSpline
 70
8
 71
3
 72
8
 73
4
 74
0
 40
0
 40
0
 40
0
 40
0
 40
1
 40
1
 40
1
 40
1
 10
469.711590
 20
900.029355
 30
0.0
 10
402.646650
 20
900.053955
 30
0.0
 10
389.231078
 20
900.229965
 30
0.0
 10
387.202268
 20
901.111942
 30
0.0
  0
LWPOLYLINE
  5
13a
100
AcDbEntity
  8
0
 62
7
100
AcDbPolyline
 90
1
 70
1
 10
367.882665
 20
902.579865
 30
0.0
  0
SPLINE
  5
13b
100
AcDbEntity
  8
0
 62
7
100
AcDbSpline
 70
8
 71
3
 72
8
 73
4
 74
0
 40
0
 40
0
 40
0
 40
0
 40
1
 40
1
 40
1
 40
1
 10
551.732190
 20
902.726130
 30
0.0
 10
556.833697
 20
905.146957
 30
0.0
 10
556.500000
 20
897.647715
 30
0.0
 10
556.500000
 20
1009.875000
 30
0.0
  0
SPLINE
  5
13c
100
AcDbEntity
  8
0
 62
7
100
AcDbSpline
 70
8
 71
3
 72
8
 73
4
 74
0
 40
0
 40
0
 40
0
 40
0
 40
1
 40
1
 40
1
 40
1
 10
556.500000
 20
1009.875000
 30
0.0
 10
556.500000
 20
1121.862965
 30
0.0
 10
556.809870
 20
1114.738717
 30
0.0
 10
551.847870
 20
1116.831860
 30
0.0
  0
SPLINE
  5
13d
100
AcDbEntity
  8
0
 62
7
100
AcDbSpline
 70
8
 71
3
 72
8
 73
4
 74
0
 40
0
 40
0
 40
0
 40
0
 40
1
 40
1
 40
1
 40
1
 10
551.847870
 20
1116.831860
 30
0.0
 10
548.164297
 20
1118.385715
 30
0.0
 10
391.585703
 20
1118.385715
 30
0.0
 10
387.902130
 20
1116.831860
 30
0.0
  0
SPLINE
  5
13e
100
AcDbEntity
  8
0
 62
7
100
AcDbSpline
 70
8
 71
3
 72
8
 73
4
 74
0
 40
0
 40
0
 40
0
 40
0
 40
1
 40
1
 40
1
 40
1
 10
387.902130
 20
1116.831860
 30
0.0
 10
382.940130
 20
1114.738717
 30
0.0
 10
383.250000
 20
1121.862965
 30
0.0
 10
383.250000
 20
1009.875000
 30
0.0
  0
SPLINE
  5
13f
100
AcDbEntity
  8
0
 62
7
100
AcDbSpline
 70
8
 71
3
 72
8
 73
4
 74
0
 40
0
 40
0
 40
0
 40
0
 40
1
 40
1
 40
1
 40
1
 10
383.250000
 20
1009.875000
 30
0.0
 10
383.250000
 20
897.927600
 30
0.0
 10
382.934363
 20
905.201108
 30
0.0
 10
387.898568
 20
902.754608
 30
0.0
  0
SPLINE
  5
140
100
AcDbEntity
  8
0
 62
7
100
AcDbSpline
 70
8
 71
3
 72
8
 73
4
 74
0
 40
0
 40
0
 40
0
 40
0
 40
1
 40
1
 40
1
 40
1
 10
387.898568
 20
902.754608
 30
0.0
 10
390.138000
 20
901.650960
 30
0.0
 10
397.972567
 20
901.532520
 30
0.0
 10
469.761653
 20
901.517078
 30
0.0
  0
SPLINE
  5
141
100
AcDbEntity
  8
0
 62
7
100
AcDbSpline
 70
8
 71
3
 72
8
 73
4
 74
0
 40
0
 40
0
 40
0
 40
0
 40
1
 40
1
 40
1
 40
1
 10
469.761653
 20
901.517078
 30
0.0
 10
541.706430
 20
901.501628
 30
0.0
 10
549.390525
 20
901.614937
 30
0.0
 10
551.732190
 20
902.726130
 30
0.0
  0
LWPOLYLINE
  5
142
100
AcDbEntity
  8
0
 62
7
100
AcDbPolyline
 90
1
 70
1
 10
387.202268
 20
901.111942
 30
0.0
  0
SPLINE
  5
143
100
AcDbEntity
  8
0
 62
7
100
AcDbSpline
 70
8
 71
3
 72
8
 73
4
 74
0
 40
0
 40
0
 40
0
 40
0
 40
1
 40
1
 40
1
 40
1
 10
755.547225
 20
901.072027
 30
0.0
 10
754.266900
 20
901.629353
 30
0.0
 10
752.495025
 20
903.102615
 30
0.0
 10
751.609725
 20
904.345950
 30
0.0
  0
LWPOLYLINE
  5
144
100
AcDbEntity
  8
0
 62
7
100
AcDbPolyline
 90
1
 70
1
 10
551.732190
 20
902.726130
 30
0.0
  0
SPLINE
  5
145
100
AcDbEntity
  8
0
 62
7
100
AcDbSpline
 70
8
 71
3
 72
8
 73
4
 74
0
 40
0
 40
0
 40
0
 40
0
 40
1
 40
1
 40
1
 40
1
 10
751.562475
 20
1115.337770
 30
0.0
 10
754.850850
 20
1119.955882
 30
0.0
 10
750.811725
 20
1119.750000
 30
0.0
 10
838.125000
 20
1119.750000
 30
0.0
  0
SPLINE
  5
146
100
AcDbEntity
  8
0
 62
7
100
AcDbSpline
 70
8
 71
3
 72
8
 73
4
 74
0
 40
0
 40
0
 40
0
 40
0
 40
1
 40
1
 40
1
 40
1
 10
838.125000
 20
1119.750000
 30
0.0
 10
926.107050
 20
1119.750000
 30
0.0
 10
921.756000
 20
1119.986378
 30
0.0
 10
924.770175
 20
1115.042831
 30
0.0
  0
SPLINE
  5
147
100
AcDbEntity
  8
0
 62
7
100
AcDbSpline
 70
8
 71
3
 72
8
 73
4
 74
0
 40
0
 40
0
 40
0
 40
0
 40
1
 40
1
 40
1
 40
1
 10
924.770175
 20
1115.042831
 30
0.0
 10
926.216850
 20
1112.670161
 30
0.0
 10
926.244375
 20
1110.705815
 30
0.0
 10
926.244375
 20
1009.875000
 30
0.0
  0
SPLINE
  5
148
100
AcDbEntity
  8
0
 62
7
100
AcDbSpline
 70
8
 71
3
 72
8
 73
4
 74
0
 40
0
 40
0
 40
0
 40
0
 40
1
 40
1
 40
1
 40
1
 10
926.244375
 20
1009.875000
 30
0.0
 10
926.244375
 20
908.136930
 30
0.0
 10
926.229375
 20
907.100550
 30
0.0
 10
924.730800
 20
904.642365
 30
0.0
  0
SPLINE
  5
149
100
AcDbEntity
  8
0
 62
7
100
AcDbSpline
 70
8
 71
3
 72
8
 73
4
 74
0
 40
0
 40
0
 40
0
 40
0
 40
1
 40
1
 40
1
 40
1
 10
924.730800
 20
904.642365
 30
0.0
 10
921.756075
 20
899.763225
 30
0.0
 10
926.153775
 20
899.997030
 30
0.0
 10
837.961575
 20
900.029355
 30
0.0
  0
SPLINE
  5
14a
100
AcDbEntity
  8
0
 62
7
100
AcDbSpline
 70
8
 71
3
 72
8
 73
4
 74
0
 40
0
 40
0
 40
0
 40
0
 40
1
 40
1
 40
1
 40
1
 10
837.961575
 20
900.029355
 30
0.0
 10
772.394400
 20
900.053430
 30
0.0
 10
757.452975
 20
900.242422
 30
0.0
 10
755.547225
 20
901.072027
 30
0.0
  0
LWPOLYLINE
  5
14b
100
AcDbEntity
  8
0
 62
7
100
AcDbPolyline
 90
5
 70
0
 10
751.609725
 20
904.345950
 30
0.0
 10
750.000000
 20
906.606555
 30
0.0
 10
750.000000
 20
1009.875000
 30
0.0
 10
750.000000
 20
1113.143444
 30
0.0
 10
751.562475
 20
1115.337770
 30
0.0
  0
SPLINE
  5
14c
100
AcDbEntity
  8
0
 62
7
100
AcDbSpline
 70
8
 71
3
 72
8
 73
4
 74
0
 40
0
 40
0
 40
0
 40
0
 40
1
 40
1
 40
1
 40
1
 10
921.071925
 20
903.198015
 30
0.0
 10
922.142700
 20
903.925680
 30
0.0
 10
923.408325
 20
905.375932
 30
0.0
 10
923.884425
 20
906.420810
 30
0.0
  0
SPLINE
  5
14d
100
AcDbEntity
  8
0
 62
7
100
AcDbSpline
 70
8
 71
3
 72
8
 73
4
 74
0
 40
0
 40
0
 40
0
 40
0
 40
1
 40
1
 40
1
 40
1
 10
923.884425
 20
906.420810
 30
0.0
 10
924.524925
 20
907.826603
 30
0.0
 10
924.750000
 20
934.754318
 30
0.0
 10
924.750000
 20
1009.982070
 30
0.0
  0
SPLINE
  5
14e
100
AcDbEntity
  8
0
 62
7
100
AcDbSpline
 70
8
 71
3
 72
8
 73
4
 74
0
 40
0
 40
0
 40
0
 40
0
 40
1
 40
1
 40
1
 40
1
 10
924.750000
 20
1009.982070
 30
0.0
 10
924.750000
 20
1104.094690
 30
0.0
 10
924.655875
 20
1111.802945
 30
0.0
 10
923.482050
 20
1113.789994
 30
0.0
  0
SPLINE
  5
14f
100
AcDbEntity
  8
0
 62
7
100
AcDbSpline
 70
8
 71
3
 72
8
 73
4
 74
0
 40
0
 40
0
 40
0
 40
0
 40
1
 40
1
 40
1
 40
1
 10
923.482050
 20
1113.789994
 30
0.0
 10
920.977875
 20
1118.029253
 30
0.0
 10
924.201000
 20
1117.875000
 30
0.0
 10
838.125000
 20
1117.875000
 30
0.0
  0
SPLINE
  5
150
100
AcDbEntity
  8
0
 62
7
100
AcDbSpline
 70
8
 71
3
 72
8
 73
4
 74
0
 40
0
 40
0
 40
0
 40
0
 40
1
 40
1
 40
1
 40
1
 10
838.125000
 20
1117.875000
 30
0.0
 10
751.585950
 20
1117.875000
 30
0.0
 10
754.840650
 20
1118.034563
 30
0.0
 10
752.589600
 20
1113.681605
 30
0.0
  0
SPLINE
  5
151
100
AcDbEntity
  8
0
 62
7
100
AcDbSpline
 70
8
 71
3
 72
8
 73
4
 74
0
 40
0
 40
0
 40
0
 40
0
 40
1
 40
1
 40
1
 40
1
 10
752.589600
 20
1113.681605
 30
0.0
 10
751.652175
 20
1111.868776
 30
0.0
 10
751.502325
 20
1097.297467
 30
0.0
 10
751.516650
 20
1009.349745
 30
0.0
  0
SPLINE
  5
152
100
AcDbEntity
  8
0
 62
7
100
AcDbSpline
 70
8
 71
3
 72
8
 73
4
 74
0
 40
0
 40
0
 40
0
 40
0
 40
1
 40
1
 40
1
 40
1
 10
751.516650
 20
1009.349745
 30
0.0
 10
751.532400
 20
913.645553
 30
0.0
 10
751.616025
 20
907.019752
 30
0.0
 10
752.829150
 20
905.475007
 30
0.0
  0
SPLINE
  5
153
100
AcDbEntity
  8
0
 62
7
100
AcDbSpline
 70
8
 71
3
 72
8
 73
4
 74
0
 40
0
 40
0
 40
0
 40
0
 40
1
 40
1
 40
1
 40
1
 10
752.829150
 20
905.475007
 30
0.0
 10
756.120825
 20
901.283730
 30
0.0
 10
751.705800
 20
901.478205
 30
0.0
 10
838.875000
 20
901.684800
 30
0.0
  0
SPLINE
  5
154
100
AcDbEntity
  8
0
 62
7
100
AcDbSpline
 70
8
 71
3
 72
8
 73
4
 74
0
 40
0
 40
0
 40
0
 40
0
 40
1
 40
1
 40
1
 40
1
 10
838.875000
 20
901.684800
 30
0.0
 10
914.128200
 20
901.863157
 30
0.0
 10
919.246200
 20
901.957380
 30
0.0
 10
921.071925
 20
903.198015
 30
0.0
  0
LWPOLYLINE
  5
155
100
AcDbEntity
  8
0
 62
7
100
AcDbPolyline
 90
1
 70
1
 10
755.547225
 20
901.072027
 30
0.0
  0
SPLINE
  5
156
100
AcDbEntity
  8
0
 62
7
100
AcDbSpline
 70
8
 71
3
 72
8
 73
4
 74
0
 40
0
 40
0
 40
0
 40
0
 40
1
 40
1
 40
1
 40
1
 10
1133.547225
 20
901.072027
 30
0.0
 10
1132.266900
 20
901.629353
 30
0.0
 10
1130.495025
 20
903.102615
 30
0.0
 10
1129.609725
 20
904.345950
 30
0.0
  0
LWPOLYLINE
  5
157
100
AcDbEntity
  8
0
 62
7
100
AcDbPolyline
 90
1
 70
1
 10
921.071925
 20
903.198015
 30
0.0
  0
SPLINE
  5
158
100
AcDbEntity
  8
0
 62
7
100
AcDbSpline
 70
8
 71
3
 72
8
 73
4
 74
0
 40
0
 40
0
 40
0
 40
0
 40
1
 40
1
 40
1
 40
1
 10
1129.611525
 20
1115.406577
 30
0.0
 10
1132.847625
 20
1119.951325
 30
0.0
 10
1128.831075
 20
1119.750107
 30
0.0
 10
1216.288425
 20
1119.748834
 30
0.0
  0
SPLINE
  5
159
100
AcDbEntity
  8
0
 62
7
100
AcDbSpline
 70
8
 71
3
 72
8
 73
4
 74
0
 40
0
 40
0
 40
0
 40
0
 40
1
 40
1
 40
1
 40
1
 10
1216.288425
 20
1119.748834
 30
0.0
 10
1305.658650
 20
1119.747560
 30
0.0
 10
1299.602025
 20
1120.108348
 30
0.0
 10
1303.305375
 20
1114.564958
 30
0.0
  0
LWPOLYLINE
  5
15a
100
AcDbEntity
  8
0
 62
7
100
AcDbPolyline
 90
5
 70
0
 10
1129.609725
 20
904.345950
 30
0.0
 10
1128.000000
 20
906.606555
 30
0.0
 10
1128.000000
 20
1009.875000
 30
0.0
 10
1128.000000
 20
1113.143444
 30
0.0
 10
1129.611525
 20
1115.406577
 30
0.0
  0
SPLINE
  5
15b
100
AcDbEntity
  8
0
 62
7
100
AcDbSpline
 70
8
 71
3
 72
8
 73
4
 74
0
 40
0
 40
0
 40
0
 40
0
 40
1
 40
1
 40
1
 40
1
 10
1304.820300
 20
1009.189957
 30
0.0
 10
1304.627475
 20
907.697310
 30
0.0
 10
1304.605725
 20
906.349267
 30
0.0
 10
1303.125000
 20
904.374030
 30
0.0
  0
SPLINE
  5
15c
100
AcDbEntity
  8
0
 62
7
100
AcDbSpline
 70
8
 71
3
 72
8
 73
4
 74
0
 40
0
 40
0
 40
0
 40
0
 40
1
 40
1
 40
1
 40
1
 10
1303.125000
 20
904.374030
 30
0.0
 10
1299.664575
 20
899.757848
 30
0.0
 10
1304.447925
 20
899.997173
 30
0.0
 10
1216.287075
 20
900.029355
 30
0.0
  0
SPLINE
  5
15d
100
AcDbEntity
  8
0
 62
7
100
AcDbSpline
 70
8
 71
3
 72
8
 73
4
 74
0
 40
0
 40
0
 40
0
 40
0
 40
1
 40
1
 40
1
 40
1
 10
1216.287075
 20
900.029355
 30
0.0
 10
1150.446450
 20
900.053430
 30
0.0
 10
1135.453200
 20
900.242332
 30
0.0
 10
1133.547225
 20
901.072027
 30
0.0
  0
LWPOLYLINE
  5
15e
100
AcDbEntity
  8
0
 62
7
100
AcDbPolyline
 90
3
 70
0
 10
1303.305375
 20
1114.564958
 30
0.0
 10
1305.015675
 20
1112.004917
 30
0.0
 10
1304.820300
 20
1009.189957
 30
0.0
  0
SPLINE
  5
15f
100
AcDbEntity
  8
0
 62
7
100
AcDbSpline
 70
8
 71
3
 72
8
 73
4
 74
0
 40
0
 40
0
 40
0
 40
0
 40
1
 40
1
 40
1
 40
1
 10
1297.882650
 20
902.579865
 30
0.0
 10
1299.304125
 20
903.173797
 30
0.0
 10
1301.148300
 20
904.776922
 30
0.0
 10
1301.980800
 20
906.142365
 30
0.0
  0
SPLINE
  5
160
100
AcDbEntity
  8
0
 62
7
100
AcDbSpline
 70
8
 71
3
 72
8
 73
4
 74
0
 40
0
 40
0
 40
0
 40
0
 40
1
 40
1
 40
1
 40
1
 10
1301.980800
 20
906.142365
 30
0.0
 10
1303.479150
 20
908.600040
 30
0.0
 10
1303.494450
 20
909.643710
 30
0.0
 10
1303.497225
 20
1009.951590
 30
0.0
  0
LWPOLYLINE
  5
161
100
AcDbEntity
  8
0
 62
7
100
AcDbPolyline
 90
1
 70
1
 10
1133.547225
 20
901.072027
 30
0.0
  0
SPLINE
  5
162
100
AcDbEntity
  8
0
 62
7
100
AcDbSpline
 70
8
 71
3
 72
8
 73
4
 74
0
 40
0
 40
0
 40
0
 40
0
 40
1
 40
1
 40
1
 40
1
 10
1301.783775
 20
1113.826588
 30
0.0
 10
1300.804725
 20
1115.282680
 30
0.0
 10
1298.956275
 20
1116.758694
 30
0.0
 10
1297.471275
 20
1117.270168
 30
0.0
  0
SPLINE
  5
163
100
AcDbEntity
  8
0
 62
7
100
AcDbSpline
 70
8
 71
3
 72
8
 73
4
 74
0
 40
0
 40
0
 40
0
 40
0
 40
1
 40
1
 40
1
 40
1
 10
1297.471275
 20
1117.270168
 30
0.0
 10
1293.822225
 20
1118.526982
 30
0.0
 10
1140.717975
 20
1118.641932
 30
0.0
 10
1135.752375
 20
1117.391587
 30
0.0
  0
SPLINE
  5
164
100
AcDbEntity
  8
0
 62
7
100
AcDbSpline
 70
8
 71
3
 72
8
 73
4
 74
0
 40
0
 40
0
 40
0
 40
0
 40
1
 40
1
 40
1
 40
1
 10
1135.752375
 20
1117.391587
 30
0.0
 10
1133.240175
 20
1116.759004
 30
0.0
 10
1131.969675
 20
1115.920439
 30
0.0
 10
1130.923050
 20
1114.204087
 30
0.0
  0
SPLINE
  5
165
100
AcDbEntity
  8
0
 62
7
100
AcDbSpline
 70
8
 71
3
 72
8
 73
4
 74
0
 40
0
 40
0
 40
0
 40
0
 40
1
 40
1
 40
1
 40
1
 10
1130.923050
 20
1114.204087
 30
0.0
 10
1129.547775
 20
1111.948736
 30
0.0
 10
1129.502775
 20
1108.639009
 30
0.0
 10
1129.500000
 20
1009.661115
 30
0.0
  0
SPLINE
  5
166
100
AcDbEntity
  8
0
 62
7
100
AcDbSpline
 70
8
 71
3
 72
8
 73
4
 74
0
 40
0
 40
0
 40
0
 40
0
 40
1
 40
1
 40
1
 40
1
 10
1129.500000
 20
1009.661115
 30
0.0
 10
1129.500000
 20
914.663513
 30
0.0
 10
1129.587375
 20
907.309650
 30
0.0
 10
1130.774025
 20
905.498580
 30
0.0
  0
SPLINE
  5
167
100
AcDbEntity
  8
0
 62
7
100
AcDbSpline
 70
8
 71
3
 72
8
 73
4
 74
0
 40
0
 40
0
 40
0
 40
0
 40
1
 40
1
 40
1
 40
1
 10
1130.774025
 20
905.498580
 30
0.0
 10
1133.447625
 20
901.418198
 30
0.0
 10
1130.382450
 20
901.561020
 30
0.0
 10
1215.958800
 20
901.529355
 30
0.0
  0
SPLINE
  5
168
100
AcDbEntity
  8
0
 62
7
100
AcDbSpline
 70
8
 71
3
 72
8
 73
4
 74
0
 40
0
 40
0
 40
0
 40
0
 40
1
 40
1
 40
1
 40
1
 10
1215.958800
 20
901.529355
 30
0.0
 10
1283.357475
 20
901.504455
 30
0.0
 10
1295.684325
 20
901.662487
 30
0.0
 10
1297.879875
 20
902.579865
 30
0.0
  0
LWPOLYLINE
  5
169
100
AcDbEntity
  8
0
 62
7
100
AcDbPolyline
 90
3
 70
0
 10
1303.497225
 20
1009.951590
 30
0.0
 10
1303.497225
 20
1111.278176
 30
0.0
 10
1301.783775
 20
1113.826588
 30
0.0
  0
SPLINE
  5
16a
100
AcDbEntity
  8
0
 62
7
100
AcDbSpline
 70
8
 71
3
 72
8
 73
4
 74
0
 40
0
 40
0
 40
0
 40
0
 40
1
 40
1
 40
1
 40
1
 10
1324.553325
 20
901.313662
 30
0.0
 10
1323.138900
 20
902.034900
 30
0.0
 10
1321.282650
 20
903.577875
 30
0.0
 10
1320.428325
 20
904.742498
 30
0.0
  0
SPLINE
  5
16b
100
AcDbEntity
  8
0
 62
7
100
AcDbSpline
 70
8
 71
3
 72
8
 73
4
 74
0
 40
0
 40
0
 40
0
 40
0
 40
1
 40
1
 40
1
 40
1
 10
1320.428325
 20
904.742498
 30
0.0
 10
1318.875075
 20
906.859935
 30
0.0
 10
1318.875000
 20
906.863025
 30
0.0
 10
1318.875000
 20
1009.875000
 30
0.0
  0
SPLINE
  5
16c
100
AcDbEntity
  8
0
 62
7
100
AcDbSpline
 70
8
 71
3
 72
8
 73
4
 74
0
 40
0
 40
0
 40
0
 40
0
 40
1
 40
1
 40
1
 40
1
 10
1318.875000
 20
1009.875000
 30
0.0
 10
1318.875000
 20
1112.886976
 30
0.0
 10
1318.875075
 20
1112.890067
 30
0.0
 10
1320.428325
 20
1115.007503
 30
0.0
  0
SPLINE
  5
16d
100
AcDbEntity
  8
0
 62
7
100
AcDbSpline
 70
8
 71
3
 72
8
 73
4
 74
0
 40
0
 40
0
 40
0
 40
0
 40
1
 40
1
 40
1
 40
1
 10
1320.428325
 20
1115.007503
 30
0.0
 10
1321.282650
 20
1116.172126
 30
0.0
 10
1323.138900
 20
1117.715101
 30
0.0
 10
1324.553325
 20
1118.436334
 30
0.0
  0
SPLINE
  5
16e
100
AcDbEntity
  8
0
 62
7
100
AcDbSpline
 70
8
 71
3
 72
8
 73
4
 74
0
 40
0
 40
0
 40
0
 40
0
 40
1
 40
1
 40
1
 40
1
 10
1324.553325
 20
1118.436334
 30
0.0
 10
1326.954000
 20
1119.660474
 30
0.0
 10
1332.436200
 20
1119.747669
 30
0.0
 10
1407.000000
 20
1119.747669
 30
0.0
  0
SPLINE
  5
16f
100
AcDbEntity
  8
0
 62
7
100
AcDbSpline
 70
8
 71
3
 72
8
 73
4
 74
0
 40
0
 40
0
 40
0
 40
0
 40
1
 40
1
 40
1
 40
1
 10
1407.000000
 20
1119.747669
 30
0.0
 10
1496.134050
 20
1119.747669
 30
0.0
 10
1490.102400
 20
1120.107789
 30
0.0
 10
1493.805375
 20
1114.564958
 30
0.0
  0
LWPOLYLINE
  5
170
100
AcDbEntity
  8
0
 62
7
100
AcDbPolyline
 90
2
 70
0
 10
1297.879875
 20
902.579865
 30
0.0
 10
1297.882650
 20
902.579865
 30
0.0
  0
SPLINE
  5
171
100
AcDbEntity
  8
0
 62
7
100
AcDbSpline
 70
8
 71
3
 72
8
 73
4
 74
0
 40
0
 40
0
 40
0
 40
0
 40
1
 40
1
 40
1
 40
1
 10
1495.320300
 20
1009.189957
 30
0.0
 10
1495.127475
 20
907.697310
 30
0.0
 10
1495.105725
 20
906.349267
 30
0.0
 10
1493.625000
 20
904.374030
 30
0.0
  0
SPLINE
  5
172
100
AcDbEntity
  8
0
 62
7
100
AcDbSpline
 70
8
 71
3
 72
8
 73
4
 74
0
 40
0
 40
0
 40
0
 40
0
 40
1
 40
1
 40
1
 40
1
 10
1493.625000
 20
904.374030
 30
0.0
 10
1490.166525
 20
899.760487
 30
0.0
 10
1494.900150
 20
899.999887
 30
0.0
 10
1407.162075
 20
900.001162
 30
0.0
  0
SPLINE
  5
173
100
AcDbEntity
  8
0
 62
7
100
AcDbSpline
 70
8
 71
3
 72
8
 73
4
 74
0
 40
0
 40
0
 40
0
 40
0
 40
1
 40
1
 40
1
 40
1
 10
1407.162075
 20
900.001162
 30
0.0
 10
1332.445275
 20
900.001913
 30
0.0
 10
1326.954075
 20
900.089497
 30
0.0
 10
1324.553325
 20
901.313662
 30
0.0
  0
LWPOLYLINE
  5
174
100
AcDbEntity
  8
0
 62
7
100
AcDbPolyline
 90
3
 70
0
 10
1493.805375
 20
1114.564958
 30
0.0
 10
1495.515675
 20
1112.004917
 30
0.0
 10
1495.320300
 20
1009.189957
 30
0.0
  0
SPLINE
  5
175
100
AcDbEntity
  8
0
 62
7
100
AcDbSpline
 70
8
 71
3
 72
8
 73
4
 74
0
 40
0
 40
0
 40
0
 40
0
 40
1
 40
1
 40
1
 40
1
 10
1488.382650
 20
902.579865
 30
0.0
 10
1489.804125
 20
903.173797
 30
0.0
 10
1491.648300
 20
904.776922
 30
0.0
 10
1492.480800
 20
906.142365
 30
0.0
  0
SPLINE
  5
176
100
AcDbEntity
  8
0
 62
7
100
AcDbSpline
 70
8
 71
3
 72
8
 73
4
 74
0
 40
0
 40
0
 40
0
 40
0
 40
1
 40
1
 40
1
 40
1
 10
1492.480800
 20
906.142365
 30
0.0
 10
1493.979150
 20
908.600040
 30
0.0
 10
1493.994450
 20
909.643710
 30
0.0
 10
1493.997225
 20
1009.951590
 30
0.0
  0
LWPOLYLINE
  5
177
100
AcDbEntity
  8
0
 62
7
100
AcDbPolyline
 90
1
 70
1
 10
1324.553325
 20
901.313662
 30
0.0
  0
SPLINE
  5
178
100
AcDbEntity
  8
0
 62
7
100
AcDbSpline
 70
8
 71
3
 72
8
 73
4
 74
0
 40
0
 40
0
 40
0
 40
0
 40
1
 40
1
 40
1
 40
1
 10
1492.282275
 20
1113.826588
 30
0.0
 10
1491.209625
 20
1115.420666
 30
0.0
 10
1489.487100
 20
1116.731059
 30
0.0
 10
1487.682600
 20
1117.325804
 30
0.0
  0
SPLINE
  5
179
100
AcDbEntity
  8
0
 62
7
100
AcDbSpline
 70
8
 71
3
 72
8
 73
4
 74
0
 40
0
 40
0
 40
0
 40
0
 40
1
 40
1
 40
1
 40
1
 10
1487.682600
 20
1117.325804
 30
0.0
 10
1485.410625
 20
1118.074623
 30
0.0
 10
1467.941925
 20
1118.233950
 30
0.0
 10
1405.452300
 20
1118.075804
 30
0.0
  0
SPLINE
  5
17a
100
AcDbEntity
  8
0
 62
7
100
AcDbSpline
 70
8
 71
3
 72
8
 73
4
 74
0
 40
0
 40
0
 40
0
 40
0
 40
1
 40
1
 40
1
 40
1
 10
1405.452300
 20
1118.075804
 30
0.0
 10
1326.252450
 20
1117.875368
 30
0.0
 10
1326.102900
 20
1117.872118
 30
0.0
 10
1323.989475
 20
1116.304752
 30
0.0
  0
SPLINE
  5
17b
100
AcDbEntity
  8
0
 62
7
100
AcDbSpline
 70
8
 71
3
 72
8
 73
4
 74
0
 40
0
 40
0
 40
0
 40
0
 40
1
 40
1
 40
1
 40
1
 10
1323.989475
 20
1116.304752
 30
0.0
 10
1322.825025
 20
1115.441116
 30
0.0
 10
1321.469400
 20
1113.584866
 30
0.0
 10
1320.977025
 20
1112.179752
 30
0.0
  0
SPLINE
  5
17c
100
AcDbEntity
  8
0
 62
7
100
AcDbSpline
 70
8
 71
3
 72
8
 73
4
 74
0
 40
0
 40
0
 40
0
 40
0
 40
1
 40
1
 40
1
 40
1
 10
1320.977025
 20
1112.179752
 30
0.0
 10
1320.301575
 20
1110.251872
 30
0.0
 10
1320.071775
 20
1085.056814
 30
0.0
 10
1320.040725
 20
1009.500000
 30
0.0
  0
SPLINE
  5
17d
100
AcDbEntity
  8
0
 62
7
100
AcDbSpline
 70
8
 71
3
 72
8
 73
4
 74
0
 40
0
 40
0
 40
0
 40
0
 40
1
 40
1
 40
1
 40
1
 10
1320.040725
 20
1009.500000
 30
0.0
 10
1320.001725
 20
915.629333
 30
0.0
 10
1320.081225
 20
909.211028
 30
0.0
 10
1321.310925
 20
906.750000
 30
0.0
  0
SPLINE
  5
17e
100
AcDbEntity
  8
0
 62
7
100
AcDbSpline
 70
8
 71
3
 72
8
 73
4
 74
0
 40
0
 40
0
 40
0
 40
0
 40
1
 40
1
 40
1
 40
1
 10
1321.310925
 20
906.750000
 30
0.0
 10
1324.102425
 20
901.161893
 30
0.0
 10
1318.553250
 20
901.502467
 30
0.0
 10
1406.833800
 20
901.501162
 30
0.0
  0
SPLINE
  5
17f
100
AcDbEntity
  8
0
 62
7
100
AcDbSpline
 70
8
 71
3
 72
8
 73
4
 74
0
 40
0
 40
0
 40
0
 40
0
 40
1
 40
1
 40
1
 40
1
 10
1406.833800
 20
901.501162
 30
0.0
 10
1473.860400
 20
901.500413
 30
0.0
 10
1486.186050
 20
901.663222
 30
0.0
 10
1488.379875
 20
902.579865
 30
0.0
  0
LWPOLYLINE
  5
180
100
AcDbEntity
  8
0
 62
7
100
AcDbPolyline
 90
3
 70
0
 10
1493.997225
 20
1009.951590
 30
0.0
 10
1493.997225
 20
1111.278176
 30
0.0
 10
1492.282275
 20
1113.826588
 30
0.0
  0
SPLINE
  5
181
100
AcDbEntity
  8
0
 62
7
100
AcDbSpline
 70
8
 71
3
 72
8
 73
4
 74
0
 40
0
 40
0
 40
0
 40
0
 40
1
 40
1
 40
1
 40
1
 10
1514.392350
 20
902.269222
 30
0.0
 10
1509.469050
 20
905.270865
 30
0.0
 10
1509.750000
 20
898.733820
 30
0.0
 10
1509.750000
 20
1010.300062
 30
0.0
  0
SPLINE
  5
182
100
AcDbEntity
  8
0
 62
7
100
AcDbSpline
 70
8
 71
3
 72
8
 73
4
 74
0
 40
0
 40
0
 40
0
 40
0
 40
1
 40
1
 40
1
 40
1
 10
1509.750000
 20
1010.300062
 30
0.0
 10
1509.750000
 20
1124.057624
 30
0.0
 10
1509.299550
 20
1115.308920
 30
0.0
 10
1515.306525
 20
1118.216848
 30
0.0
  0
SPLINE
  5
183
100
AcDbEntity
  8
0
 62
7
100
AcDbSpline
 70
8
 71
3
 72
8
 73
4
 74
0
 40
0
 40
0
 40
0
 40
0
 40
1
 40
1
 40
1
 40
1
 10
1515.306525
 20
1118.216848
 30
0.0
 10
1518.435675
 20
1119.731645
 30
0.0
 10
1519.430400
 20
1119.750000
 30
0.0
 10
1598.395200
 20
1119.750000
 30
0.0
  0
SPLINE
  5
184
100
AcDbEntity
  8
0
 62
7
100
AcDbSpline
 70
8
 71
3
 72
8
 73
4
 74
0
 40
0
 40
0
 40
0
 40
0
 40
1
 40
1
 40
1
 40
1
 10
1598.395200
 20
1119.750000
 30
0.0
 10
1686.630825
 20
1119.750000
 30
0.0
 10
1682.255550
 20
1119.987067
 30
0.0
 10
1685.270175
 20
1115.042831
 30
0.0
  0
SPLINE
  5
185
100
AcDbEntity
  8
0
 62
7
100
AcDbSpline
 70
8
 71
3
 72
8
 73
4
 74
0
 40
0
 40
0
 40
0
 40
0
 40
1
 40
1
 40
1
 40
1
 10
1685.270175
 20
1115.042831
 30
0.0
 10
1686.716850
 20
1112.670195
 30
0.0
 10
1686.744450
 20
1110.702742
 30
0.0
 10
1686.747225
 20
1009.788645
 30
0.0
  0
LWPOLYLINE
  5
186
100
AcDbEntity
  8
0
 62
7
100
AcDbPolyline
 90
2
 70
0
 10
1488.379875
 20
902.579865
 30
0.0
 10
1488.382650
 20
902.579865
 30
0.0
  0
SPLINE
  5
187
100
AcDbEntity
  8
0
 62
7
100
AcDbSpline
 70
8
 71
3
 72
8
 73
4
 74
0
 40
0
 40
0
 40
0
 40
0
 40
1
 40
1
 40
1
 40
1
 10
1685.181000
 20
904.961160
 30
0.0
 10
1681.679775
 20
900.510075
 30
0.0
 10
1686.639375
 20
900.749745
 30
0.0
 10
1598.097000
 20
900.752805
 30
0.0
  0
SPLINE
  5
188
100
AcDbEntity
  8
0
 62
7
100
AcDbSpline
 70
8
 71
3
 72
8
 73
4
 74
0
 40
0
 40
0
 40
0
 40
0
 40
1
 40
1
 40
1
 40
1
 10
1598.097000
 20
900.752805
 30
0.0
 10
1517.951250
 20
900.755805
 30
0.0
 10
1516.839225
 20
900.775755
 30
0.0
 10
1514.389575
 20
902.269223
 30
0.0
  0
LWPOLYLINE
  5
189
100
AcDbEntity
  8
0
 62
7
100
AcDbPolyline
 90
3
 70
0
 10
1686.747225
 20
1009.788645
 30
0.0
 10
1686.747225
 20
906.952290
 30
0.0
 10
1685.181000
 20
904.961160
 30
0.0
  0
SPLINE
  5
18a
100
AcDbEntity
  8
0
 62
7
100
AcDbSpline
 70
8
 71
3
 72
8
 73
4
 74
0
 40
0
 40
0
 40
0
 40
0
 40
1
 40
1
 40
1
 40
1
 10
1681.331175
 20
903.753150
 30
0.0
 10
1682.682075
 20
904.576793
 30
0.0
 10
1684.116450
 20
906.116257
 30
0.0
 10
1684.518675
 20
907.174170
 30
0.0
  0
SPLINE
  5
18b
100
AcDbEntity
  8
0
 62
7
100
AcDbSpline
 70
8
 71
3
 72
8
 73
4
 74
0
 40
0
 40
0
 40
0
 40
0
 40
1
 40
1
 40
1
 40
1
 10
1684.518675
 20
907.174170
 30
0.0
 10
1685.663325
 20
910.184737
 30
0.0
 10
1685.503050
 20
1110.874103
 30
0.0
 10
1684.353975
 20
1113.395957
 30
0.0
  0
SPLINE
  5
18c
100
AcDbEntity
  8
0
 62
7
100
AcDbSpline
 70
8
 71
3
 72
8
 73
4
 74
0
 40
0
 40
0
 40
0
 40
0
 40
1
 40
1
 40
1
 40
1
 10
1684.353975
 20
1113.395957
 30
0.0
 10
1683.861150
 20
1114.477552
 30
0.0
 10
1682.426775
 20
1115.927807
 30
0.0
 10
1681.166475
 20
1116.618747
 30
0.0
  0
SPLINE
  5
18d
100
AcDbEntity
  8
0
 62
7
100
AcDbSpline
 70
8
 71
3
 72
8
 73
4
 74
0
 40
0
 40
0
 40
0
 40
0
 40
1
 40
1
 40
1
 40
1
 10
1681.166475
 20
1116.618747
 30
0.0
 10
1679.072325
 20
1117.766839
 30
0.0
 10
1672.159350
 20
1117.894168
 30
0.0
 10
1600.875000
 20
1118.097628
 30
0.0
  0
SPLINE
  5
18e
100
AcDbEntity
  8
0
 62
7
100
AcDbSpline
 70
8
 71
3
 72
8
 73
4
 74
0
 40
0
 40
0
 40
0
 40
0
 40
1
 40
1
 40
1
 40
1
 10
1600.875000
 20
1118.097628
 30
0.0
 10
1557.975000
 20
1118.220073
 30
0.0
 10
1521.419175
 20
1118.111810
 30
0.0
 10
1519.639950
 20
1117.857037
 30
0.0
  0
SPLINE
  5
18f
100
AcDbEntity
  8
0
 62
7
100
AcDbSpline
 70
8
 71
3
 72
8
 73
4
 74
0
 40
0
 40
0
 40
0
 40
0
 40
1
 40
1
 40
1
 40
1
 10
1519.639950
 20
1117.857037
 30
0.0
 10
1517.619600
 20
1117.567753
 30
0.0
 10
1515.507450
 20
1116.592034
 30
0.0
 10
1514.014950
 20
1115.258525
 30
0.0
  0
LWPOLYLINE
  5
190
100
AcDbEntity
  8
0
 62
7
100
AcDbPolyline
 90
2
 70
0
 10
1514.389575
 20
902.269223
 30
0.0
 10
1514.392350
 20
902.269222
 30
0.0
  0
SPLINE
  5
191
100
AcDbEntity
  8
0
 62
7
100
AcDbSpline
 70
8
 71
3
 72
8
 73
4
 74
0
 40
0
 40
0
 40
0
 40
0
 40
1
 40
1
 40
1
 40
1
 10
1511.426925
 20
1011.437842
 30
0.0
 10
1511.208000
 20
899.042348
 30
0.0
 10
1510.938450
 20
905.539740
 30
0.0
 10
1515.909450
 20
903.379957
 30
0.0
  0
SPLINE
  5
192
100
AcDbEntity
  8
0
 62
7
100
AcDbSpline
 70
8
 71
3
 72
8
 73
4
 74
0
 40
0
 40
0
 40
0
 40
0
 40
1
 40
1
 40
1
 40
1
 10
1515.909450
 20
903.379957
 30
0.0
 10
1517.994075
 20
902.474235
 30
0.0
 10
1530.774525
 20
902.304607
 30
0.0
 10
1598.625000
 20
902.282160
 30
0.0
  0
SPLINE
  5
193
100
AcDbEntity
  8
0
 62
7
100
AcDbSpline
 70
8
 71
3
 72
8
 73
4
 74
0
 40
0
 40
0
 40
0
 40
0
 40
1
 40
1
 40
1
 40
1
 10
1598.625000
 20
902.282160
 30
0.0
 10
1677.535125
 20
902.256060
 30
0.0
 10
1678.916025
 20
902.280660
 30
0.0
 10
1681.331175
 20
903.753150
 30
0.0
  0
LWPOLYLINE
  5
194
100
AcDbEntity
  8
0
 62
7
100
AcDbPolyline
 90
3
 70
0
 10
1514.014950
 20
1115.258525
 30
0.0
 10
1511.625000
 20
1113.123232
 30
0.0
 10
1511.426925
 20
1011.437842
 30
0.0
  0
LWPOLYLINE
  5
195
100
AcDbEntity
  8
0
 62
7
100
AcDbPolyline
 90
1
 70
1
 10
1681.331175
 20
903.753150
 30
0.0
  0
SPLINE
  5
196
100
AcDbEntity
  8
0
 62
7
100
AcDbSpline
 70
8
 71
3
 72
8
 73
4
 74
0
 40
0
 40
0
 40
0
 40
0
 40
1
 40
1
 40
1
 40
1
 10
565.685798
 20
1010.004795
 30
0.0
 10
565.497945
 20
1112.636370
 30
0.0
 10
565.507440
 20
1113.392740
 30
0.0
 10
567.014723
 20
1115.857632
 30
0.0
  0
SPLINE
  5
197
100
AcDbEntity
  8
0
 62
7
100
AcDbSpline
 70
8
 71
3
 72
8
 73
4
 74
0
 40
0
 40
0
 40
0
 40
0
 40
1
 40
1
 40
1
 40
1
 10
567.014723
 20
1115.857632
 30
0.0
 10
569.997495
 20
1120.735443
 30
0.0
 10
565.585928
 20
1120.500000
 30
0.0
 10
654.000000
 20
1120.500000
 30
0.0
  0
SPLINE
  5
198
100
AcDbEntity
  8
0
 62
7
100
AcDbSpline
 70
8
 71
3
 72
8
 73
4
 74
0
 40
0
 40
0
 40
0
 40
0
 40
1
 40
1
 40
1
 40
1
 10
654.000000
 20
1120.500000
 30
0.0
 10
742.414072
 20
1120.500000
 30
0.0
 10
738.002505
 20
1120.735443
 30
0.0
 10
740.985277
 20
1115.857632
 30
0.0
  0
SPLINE
  5
199
100
AcDbEntity
  8
0
 62
7
100
AcDbSpline
 70
8
 71
3
 72
8
 73
4
 74
0
 40
0
 40
0
 40
0
 40
0
 40
1
 40
1
 40
1
 40
1
 10
740.985277
 20
1115.857632
 30
0.0
 10
742.492560
 20
1113.392740
 30
0.0
 10
742.502055
 20
1112.636370
 30
0.0
 10
742.314202
 20
1010.004795
 30
0.0
  0
LWPOLYLINE
  5
19a
100
AcDbEntity
  8
0
 62
7
100
AcDbPolyline
 90
3
 70
0
 10
568.676483
 20
904.067295
 30
0.0
 10
565.875000
 20
906.634598
 30
0.0
 10
565.685798
 20
1010.004795
 30
0.0
  0
LWPOLYLINE
  5
19b
100
AcDbEntity
  8
0
 62
7
100
AcDbPolyline
 90
7
 70
0
 10
742.314202
 20
1010.004795
 30
0.0
 10
742.125000
 20
906.634598
 30
0.0
 10
739.323517
 20
904.067295
 30
0.0
 10
736.522027
 20
901.500000
 30
0.0
 10
654.000000
 20
901.500000
 30
0.0
 10
571.477973
 20
901.500000
 30
0.0
 10
568.676483
 20
904.067295
 30
0.0
  0
SPLINE
  5
19c
100
AcDbEntity
  8
0
 62
7
100
AcDbSpline
 70
8
 71
3
 72
8
 73
4
 74
0
 40
0
 40
0
 40
0
 40
0
 40
1
 40
1
 40
1
 40
1
 10
740.820428
 20
1009.835325
 30
0.0
 10
741.037328
 20
1123.554278
 30
0.0
 10
741.379140
 20
1115.728016
 30
0.0
 10
736.099275
 20
1117.934084
 30
0.0
  0
SPLINE
  5
19d
100
AcDbEntity
  8
0
 62
7
100
AcDbSpline
 70
8
 71
3
 72
8
 73
4
 74
0
 40
0
 40
0
 40
0
 40
0
 40
1
 40
1
 40
1
 40
1
 10
736.099275
 20
1117.934084
 30
0.0
 10
732.284558
 20
1119.527975
 30
0.0
 10
575.715443
 20
1119.527975
 30
0.0
 10
571.900725
 20
1117.934084
 30
0.0
  0
SPLINE
  5
19e
100
AcDbEntity
  8
0
 62
7
100
AcDbSpline
 70
8
 71
3
 72
8
 73
4
 74
0
 40
0
 40
0
 40
0
 40
0
 40
1
 40
1
 40
1
 40
1
 10
571.900725
 20
1117.934084
 30
0.0
 10
566.620860
 20
1115.728016
 30
0.0
 10
566.962673
 20
1123.554278
 30
0.0
 10
567.179573
 20
1009.835325
 30
0.0
  0
LWPOLYLINE
  5
19f
100
AcDbEntity
  8
0
 62
7
100
AcDbPolyline
 90
3
 70
0
 10
738.175665
 20
905.188402
 30
0.0
 10
740.625000
 20
907.376813
 30
0.0
 10
740.820428
 20
1009.835325
 30
0.0
  0
LWPOLYLINE
  5
1a0
100
AcDbEntity
  8
0
 62
7
100
AcDbPolyline
 90
7
 70
0
 10
567.179573
 20
1009.835325
 30
0.0
 10
567.375000
 20
907.376813
 30
0.0
 10
569.824335
 20
905.188402
 30
0.0
 10
572.273663
 20
903.000000
 30
0.0
 10
654.000000
 20
903.000000
 30
0.0
 10
735.726337
 20
903.000000
 30
0.0
 10
738.175665
 20
905.188402
 30
0.0
  0
SPLINE
  5
1a1
100
AcDbEntity
  8
0
 62
7
100
AcDbSpline
 70
8
 71
3
 72
8
 73
4
 74
0
 40
0
 40
0
 40
0
 40
0
 40
1
 40
1
 40
1
 40
1
 10
938.434350
 20
1009.629795
 30
0.0
 10
938.254950
 20
1106.539088
 30
0.0
 10
938.321400
 20
1112.780109
 30
0.0
 10
939.559350
 20
1115.250000
 30
0.0
  0
SPLINE
  5
1a2
100
AcDbEntity
  8
0
 62
7
100
AcDbSpline
 70
8
 71
3
 72
8
 73
4
 74
0
 40
0
 40
0
 40
0
 40
0
 40
1
 40
1
 40
1
 40
1
 10
939.559350
 20
1115.250000
 30
0.0
 10
940.308300
 20
1116.744342
 30
0.0
 10
942.005625
 20
1118.442155
 30
0.0
 10
943.500000
 20
1119.191738
 30
0.0
  0
SPLINE
  5
1a3
100
AcDbEntity
  8
0
 62
7
100
AcDbSpline
 70
8
 71
3
 72
8
 73
4
 74
0
 40
0
 40
0
 40
0
 40
0
 40
1
 40
1
 40
1
 40
1
 10
943.500000
 20
1119.191738
 30
0.0
 10
945.962250
 20
1120.426826
 30
0.0
 10
951.179475
 20
1120.496586
 30
0.0
 10
1027.638375
 20
1120.316738
 30
0.0
  0
LWPOLYLINE
  5
1a4
100
AcDbEntity
  8
0
 62
7
100
AcDbPolyline
 90
3
 70
0
 10
941.426475
 20
904.067295
 30
0.0
 10
938.625000
 20
906.634598
 30
0.0
 10
938.434350
 20
1009.629795
 30
0.0
  0
SPLINE
  5
1a5
100
AcDbEntity
  8
0
 62
7
100
AcDbSpline
 70
8
 71
3
 72
8
 73
4
 74
0
 40
0
 40
0
 40
0
 40
0
 40
1
 40
1
 40
1
 40
1
 10
1111.462875
 20
1117.910722
 30
0.0
 10
1112.733900
 20
1116.692869
 30
0.0
 10
1114.112025
 20
1114.440961
 30
0.0
 10
1114.525200
 20
1112.906483
 30
0.0
  0
SPLINE
  5
1a6
100
AcDbEntity
  8
0
 62
7
100
AcDbSpline
 70
8
 71
3
 72
8
 73
4
 74
0
 40
0
 40
0
 40
0
 40
0
 40
1
 40
1
 40
1
 40
1
 10
1114.525200
 20
1112.906483
 30
0.0
 10
1115.014125
 20
1111.090699
 30
0.0
 10
1115.206350
 20
1074.807991
 30
0.0
 10
1115.075700
 20
1008.995760
 30
0.0
  0
SPLINE
  5
1a7
100
AcDbEntity
  8
0
 62
7
100
AcDbSpline
 70
8
 71
3
 72
8
 73
4
 74
0
 40
0
 40
0
 40
0
 40
0
 40
1
 40
1
 40
1
 40
1
 10
1115.075700
 20
1008.995760
 30
0.0
 10
1114.881375
 20
911.093430
 30
0.0
 10
1114.829700
 20
907.808137
 30
0.0
 10
1113.451125
 20
905.774167
 30
0.0
  0
SPLINE
  5
1a8
100
AcDbEntity
  8
0
 62
7
100
AcDbSpline
 70
8
 71
3
 72
8
 73
4
 74
0
 40
0
 40
0
 40
0
 40
0
 40
1
 40
1
 40
1
 40
1
 10
1113.451125
 20
905.774167
 30
0.0
 10
1110.392100
 20
901.260735
 30
0.0
 10
1115.286075
 20
901.500000
 30
0.0
 10
1026.026250
 20
901.500000
 30
0.0
  0
LWPOLYLINE
  5
1a9
100
AcDbEntity
  8
0
 62
7
100
AcDbPolyline
 90
3
 70
0
 10
1027.638375
 20
1120.316738
 30
0.0
 10
1109.151750
 20
1120.125000
 30
0.0
 10
1111.462875
 20
1117.910722
 30
0.0
  0
SPLINE
  5
1aa
100
AcDbEntity
  8
0
 62
7
100
AcDbSpline
 70
8
 71
3
 72
8
 73
4
 74
0
 40
0
 40
0
 40
0
 40
0
 40
1
 40
1
 40
1
 40
1
 10
1109.270625
 20
904.278082
 30
0.0
 10
1110.290550
 20
904.981027
 30
0.0
 10
1111.536150
 20
906.077903
 30
0.0
 10
1112.038650
 20
906.715582
 30
0.0
  0
SPLINE
  5
1ab
100
AcDbEntity
  8
0
 62
7
100
AcDbSpline
 70
8
 71
3
 72
8
 73
4
 74
0
 40
0
 40
0
 40
0
 40
0
 40
1
 40
1
 40
1
 40
1
 10
1112.038650
 20
906.715582
 30
0.0
 10
1112.746500
 20
907.613857
 30
0.0
 10
1112.957700
 20
931.057703
 30
0.0
 10
1112.976150
 20
1010.800665
 30
0.0
  0
LWPOLYLINE
  5
1ac
100
AcDbEntity
  8
0
 62
7
100
AcDbPolyline
 90
3
 70
0
 10
1026.026250
 20
901.500000
 30
0.0
 10
944.227950
 20
901.500000
 30
0.0
 10
941.426475
 20
904.067295
 30
0.0
  0
SPLINE
  5
1ad
100
AcDbEntity
  8
0
 62
7
100
AcDbSpline
 70
8
 71
3
 72
8
 73
4
 74
0
 40
0
 40
0
 40
0
 40
0
 40
1
 40
1
 40
1
 40
1
 10
1027.944075
 20
1118.825675
 30
0.0
 10
938.263050
 20
1119.048742
 30
0.0
 10
942.989775
 20
1119.302084
 30
0.0
 10
940.840050
 20
1114.157054
 30
0.0
  0
SPLINE
  5
1ae
100
AcDbEntity
  8
0
 62
7
100
AcDbSpline
 70
8
 71
3
 72
8
 73
4
 74
0
 40
0
 40
0
 40
0
 40
0
 40
1
 40
1
 40
1
 40
1
 10
940.840050
 20
1114.157054
 30
0.0
 10
939.880500
 20
1111.860592
 30
0.0
 10
939.759975
 20
1098.014547
 30
0.0
 10
939.929550
 20
1009.583715
 30
0.0
  0
SPLINE
  5
1af
100
AcDbEntity
  8
0
 62
7
100
AcDbSpline
 70
8
 71
3
 72
8
 73
4
 74
0
 40
0
 40
0
 40
0
 40
0
 40
1
 40
1
 40
1
 40
1
 10
939.929550
 20
1009.583715
 30
0.0
 10
940.122675
 20
908.853135
 30
0.0
 10
940.142625
 20
907.637745
 30
0.0
 10
941.625000
 20
905.990130
 30
0.0
  0
SPLINE
  5
1b0
100
AcDbEntity
  8
0
 62
7
100
AcDbSpline
 70
8
 71
3
 72
8
 73
4
 74
0
 40
0
 40
0
 40
0
 40
0
 40
1
 40
1
 40
1
 40
1
 10
941.625000
 20
905.990130
 30
0.0
 10
942.450000
 20
905.073180
 30
0.0
 10
943.800000
 20
904.046685
 30
0.0
 10
944.625000
 20
903.709020
 30
0.0
  0
SPLINE
  5
1b1
100
AcDbEntity
  8
0
 62
7
100
AcDbSpline
 70
8
 71
3
 72
8
 73
4
 74
0
 40
0
 40
0
 40
0
 40
0
 40
1
 40
1
 40
1
 40
1
 10
944.625000
 20
903.709020
 30
0.0
 10
945.450000
 20
903.371355
 30
0.0
 10
982.415550
 20
903.073688
 30
0.0
 10
1026.770625
 20
903.047542
 30
0.0
  0
SPLINE
  5
1b2
100
AcDbEntity
  8
0
 62
7
100
AcDbSpline
 70
8
 71
3
 72
8
 73
4
 74
0
 40
0
 40
0
 40
0
 40
0
 40
1
 40
1
 40
1
 40
1
 10
1026.770625
 20
903.047542
 30
0.0
 10
1101.569775
 20
903.003443
 30
0.0
 10
1107.550650
 20
903.092617
 30
0.0
 10
1109.270625
 20
904.278082
 30
0.0
  0
LWPOLYLINE
  5
1b3
100
AcDbEntity
  8
0
 62
7
100
AcDbPolyline
 90
5
 70
0
 10
1112.976150
 20
1010.800665
 30
0.0
 10
1113.000000
 20
1113.726335
 30
0.0
 10
1110.811650
 20
1116.175667
 30
0.0
 10
1108.623300
 20
1118.625000
 30
0.0
 10
1027.944075
 20
1118.825675
 30
0.0
  0
LWPOLYLINE
  5
1b4
100
AcDbEntity
  8
0
 62
7
100
AcDbPolyline
 90
1
 70
1
 10
1109.270625
 20
904.278082
 30
0.0
  0
LWPOLYLINE
  5
1b5
100
AcDbEntity
  8
0
 62
7
100
AcDbPolyline
 90
4
 70
1
 10
0.000000
 20
888.213292
 30
0.0
 10
1702.300425
 20
888.213292
 30
0.0
 10
1702.300425
 20
886.912834
 30
0.0
 10
0.000000
 20
886.912834
 30
0.0
  0
ENDSEC
  0
SECTION
  2
OBJECTS
  0
DICTIONARY
  5
C
330
0
100
AcDbDictionary
  3
ACAD_GROUP
350
D
  3
ACAD_MLINESTYLE
350
17
  0
DICTIONARY
  5
D
330
C
100
AcDbDictionary
  0
DICTIONARY
  5
1A
330
C
100
AcDbDictionary
  0
DICTIONARY
  5
17
330
C
100
AcDbDictionary
  3
STANDARD
350
18
  0
DICTIONARY
  5
19
330
C
100
AcDbDictionary
  0
ENDSEC
  0
EOF
