<?xml version="1.0" encoding="UTF-8" standalone="no"?>
<!-- Created with Inkscape (http://www.inkscape.org/) -->

<svg
   xmlns:dc="http://purl.org/dc/elements/1.1/"
   xmlns:cc="http://creativecommons.org/ns#"
   xmlns:rdf="http://www.w3.org/1999/02/22-rdf-syntax-ns#"
   xmlns:svg="http://www.w3.org/2000/svg"
   xmlns="http://www.w3.org/2000/svg"
   xmlns:sodipodi="http://sodipodi.sourceforge.net/DTD/sodipodi-0.dtd"
   xmlns:inkscape="http://www.inkscape.org/namespaces/inkscape"
   version="1.1"
   id="svg2"
   width="2268"
   height="1512"
   viewBox="0 0 2268 1512"
   sodipodi:docname="FUSTA-TALL_frontal.svg"
   inkscape:version="0.92.3 (2405546, 2018-03-11)">
  <metadata
     id="metadata8">
    <rdf:RDF>
      <cc:Work
         rdf:about="">
        <dc:format>image/svg+xml</dc:format>
        <dc:type
           rdf:resource="http://purl.org/dc/dcmitype/StillImage" />
        <dc:title></dc:title>
      </cc:Work>
    </rdf:RDF>
  </metadata>
  <defs
     id="defs6" />
  <sodipodi:namedview
     pagecolor="#ffffff"
     bordercolor="#666666"
     borderopacity="1"
     objecttolerance="10"
     gridtolerance="10"
     guidetolerance="10"
     inkscape:pageopacity="0"
     inkscape:pageshadow="2"
     inkscape:window-width="1920"
     inkscape:window-height="1027"
     id="namedview4"
     showgrid="false"
     inkscape:zoom="2.3068783"
     inkscape:cx="176.55411"
     inkscape:cy="1340.1507"
     inkscape:window-x="-8"
     inkscape:window-y="-8"
     inkscape:window-maximized="1"
     inkscape:current-layer="svg2" />
  <path
     style="fill:#000000"
     d="m 566.75,329.25 c 311.9875,-0.13846 822.5125,-0.13846 1134.5,0 311.9875,0.13847 56.725,0.25175 -567.25,0.25175 -623.975,0 -879.2375,-0.11328 -567.25,-0.25175 z M 26.071085,310.24845 c -1.885903,-0.96165 -4.360903,-3.01888 -5.5,-4.57163 -2.067809,-2.81872 -2.071487,-3.03856 -2.325349,-139 -0.239258,-128.140181 -0.150734,-136.379182 1.5,-139.605735 0.964845,-1.885903 3.024763,-4.360903 4.577594,-5.5 C 27.138286,19.506144 27.471042,19.5 136.5,19.5 c 109.02896,0 109.36171,0.0061 112.17667,2.071085 1.55283,1.139097 3.61013,3.614097 4.57178,5.5 1.63911,3.214509 1.74854,11.907952 1.75,139.031035 l 0.002,135.60211 -2.26993,3.39789 c -4.92611,7.37394 3.15148,6.89477 -116.23007,6.89477 -99.894452,0 -107.227704,-0.11611 -110.428915,-1.74844 z m 219.928915,-2 c 2.00237,-1.0003 4.24815,-3.24608 5.24845,-5.24845 1.63841,-3.27975 1.74854,-11.91888 1.75,-137.28212 C 253.00014,19.941434 253.28666,27.199609 247.3775,23.327781 244.71898,21.58585 239.50487,21.5 136.36731,21.5 H 28.146661 l -2.823331,2.095512 c -1.552831,1.152531 -3.392204,3.794943 -4.087495,5.872027 -0.999191,2.984942 -1.208795,31.89959 -1,137.948701 0.25194,127.96285 0.348646,134.30111 2.089642,136.95798 3.786998,5.7792 -1.016381,5.54424 114.174523,5.58508 98.95972,0.0351 106.23246,-0.0785 109.5,-1.71085 z m 25.24086,1.75695 c -1.79253,-1.09292 -4.15334,-3.45373 -5.24626,-5.24626 -1.95699,-3.20972 -1.98716,-5.31392 -1.98931,-138.75914 -0.002,-127.030188 0.10711,-135.714334 1.74626,-138.928915 0.96165,-1.885903 3.01884,-4.360903 4.57155,-5.5 2.80884,-2.060626 3.36685,-2.072376 110.5,-2.326798 120.23816,-0.285544 111.95644,-0.756887 116.90697,6.653596 L 500,29.295766 499.996,165.39788 c -0.004,134.04463 -0.0338,136.15139 -1.99086,139.36126 -1.09292,1.79253 -3.45373,4.15334 -5.24626,5.24626 -3.19874,1.9503 -5.25146,1.98712 -110.75914,1.98712 -105.50768,0 -107.5604,-0.0368 -110.75914,-1.98712 z m 219.26936,-1.44522 c 1.89529,-0.79191 4.35416,-2.92941 5.46415,-4.75 1.99786,-3.2769 2.01819,-4.66846 2.02189,-138.4123 L 498,30.295766 495.71344,26.897883 c -1.43028,-2.125438 -3.72695,-3.872628 -6.13293,-4.665622 -3.02917,-0.998393 -26.29534,-1.210855 -109.50779,-1 -100.40466,0.254419 -105.80017,0.358673 -108.45059,2.09552 -5.90874,3.872062 -5.62227,-3.385338 -5.62058,142.390099 10e-4,125.36324 0.11159,134.00237 1.75,137.28212 3.7221,7.45081 -3.67683,6.99671 114.03057,6.99845 89.36879,0.001 105.80298,-0.21608 108.7281,-1.43827 z m 25.75947,1.95723 c -1.77666,-0.77236 -4.13748,-2.89225 -5.24626,-4.71086 -1.99537,-3.27279 -2.01595,-4.70522 -2.01595,-140.30655 0,-134.441087 0.0367,-137.060214 1.96561,-140.223775 C 514.99203,18.684829 509.19065,19 626.5,19 c 117.30935,0 111.50797,-0.315171 115.52691,6.276225 1.9289,3.163561 1.96561,5.782688 1.96561,140.223775 0,135.65076 -0.0199,137.0326 -2.01815,140.31018 -3.96631,6.50552 1.89732,6.19378 -115.69225,6.15068 -89.41992,-0.0328 -107.30735,-0.26748 -110.01243,-1.44345 z m 219.37323,-2.15225 C 742.44493,305.13739 742,315.13638 742,165.5 742,16.182713 742.41316,25.68171 735.79716,22.890854 c -4.91143,-2.071807 -213.68289,-2.071807 -218.59432,0 C 510.58684,25.68171 511,16.182713 511,165.5 c 0,149.2632 -0.42085,139.56519 6.19809,142.82719 2.98591,1.47153 13.432,1.62945 109.15078,1.65004 95.92637,0.0206 106.17183,-0.13048 109.29405,-1.61207 z m 271.75338,2.20547 c -1.7071,-0.7431 -4.0696,-2.70745 -5.25,-4.36523 L 1000,303.19126 V 165.5 27.808741 l 2.0833,-2.925768 C 1006.4678,18.725491 1001.0823,19 1117.5,19 c 117.3094,0 111.508,-0.315171 115.5269,6.276225 1.9289,3.163561 1.9656,5.782688 1.9656,140.223775 0,135.65076 -0.02,137.0326 -2.0181,140.31018 -3.9663,6.50552 1.8973,6.19378 -115.6923,6.15068 -87.4229,-0.0321 -107.3448,-0.28409 -109.8858,-1.39023 z m 220.6996,-2.83465 c 1.4277,-0.97022 3.1152,-2.90389 3.75,-4.29706 0.854,-1.87439 1.1541,-37.77801 1.1541,-138.08168 0,-125.483493 -0.1255,-135.761167 -1.6906,-138.410565 C 1227.9705,21.294329 1232.268,21.5 1117.5,21.5 c -115.3854,0 -111.0458,-0.212751 -114.0472,5.591194 -1.2499,2.417105 -1.4497,21.845517 -1.4306,139.109146 0.021,127.60559 0.1325,136.43999 1.75,138.49965 4.3889,5.58837 -1.4978,5.32907 114.7278,5.05361 100.3376,-0.23781 107.1616,-0.36344 109.5959,-2.01762 z m 283.3004,2.83465 c -1.7071,-0.7431 -4.0696,-2.70745 -5.25,-4.36523 L 1504,303.19126 V 165.5 27.808741 l 2.1487,-3.01751 c 4.3148,-6.059664 -1.0406,-5.791374 115.5692,-5.789677 119.1603,0.0017 111.0848,-0.479352 116.0226,6.911835 l 2.2804,3.413389 -0.2605,137.086612 c -0.2571,135.32353 -0.2861,137.12092 -2.2604,139.75457 -4.6139,6.15491 1.7639,5.83581 -115.7839,5.7929 -87.7875,-0.0321 -107.7785,-0.28397 -110.3198,-1.39023 z m 219.1139,-2.01045 c 1.8953,-0.79191 4.3542,-2.92941 5.4642,-4.75 1.9978,-3.2769 2.0182,-4.66846 2.0219,-138.4123 V 30.295766 l -2.2846,-3.397883 c -1.3054,-1.941457 -3.77,-3.909475 -5.75,-4.591441 -4.8654,-1.675751 -209.0044,-1.829018 -215.6252,-0.161891 -3.3496,0.843444 -5.0436,1.96153 -6.4391,4.25 -1.8337,3.007134 -1.8937,7.420104 -1.8974,139.390629 0,126.66347 0.1165,136.46862 1.6987,138.88338 3.5648,5.44051 -0.5221,5.25008 113.5797,5.2923 89.8649,0.0332 106.3007,-0.17751 109.2281,-1.40068 z m 35.5609,1.68827 c -1.8859,-0.96165 -4.3609,-3.01895 -5.5,-4.57178 -2.071,-2.82325 -2.0711,-2.82737 -2.0711,-140.17667 0,-137.349301 10e-5,-137.353422 2.0711,-140.17667 1.1391,-1.552831 3.6141,-3.610131 5.5,-4.571776 3.2009,-1.632186 10.5105,-1.748446 109.9289,-1.748446 118.8454,0 110.8032,-0.48016 115.7405,6.910281 l 2.2804,3.413389 -0.2605,137.086612 c -0.2571,135.32353 -0.2861,137.12092 -2.2604,139.75457 -4.6113,6.15139 1.7002,5.83219 -115.2839,5.83049 -99.6224,-10e-4 -106.944,-0.11778 -110.145,-1.75 z m 218.4391,-1.68827 c 1.8953,-0.79191 4.3542,-2.92941 5.4642,-4.75 1.9978,-3.2769 2.0182,-4.66846 2.0219,-138.4123 V 30.295766 l -2.2866,-3.397883 c -1.4302,-2.125438 -3.7269,-3.872628 -6.1329,-4.665622 -3.0293,-0.998425 -26.3209,-1.210861 -109.6404,-1 -105.5998,0.267248 -105.7992,0.271582 -108.6171,2.361403 -1.5526,1.151515 -3.3601,3.626515 -4.0166,5.5 -0.9006,2.570506 -1.207,36.163918 -1.2484,136.906336 -0.052,125.16089 0.054,133.71863 1.6936,137 3.722,7.45081 -3.6769,6.99671 114.0305,6.99845 89.3688,0.001 105.803,-0.21608 108.7281,-1.43827 z m 34.6796,0.41419 C 2012.6254,304.97218 2013,313.68824 2013,164.93325 2013,13.256502 2012.3994,24.92144 2020.4087,21.044202 2024.5809,19.024473 2025.9072,19 2131.1936,19 c 117.6475,0 111.8138,-0.316089 115.8333,6.276225 1.9289,3.163515 1.9657,5.786786 1.9694,140.338915 v 137.11514 l -2.0883,2.65484 c -4.6683,5.93478 1.9445,5.61522 -116.112,5.61114 -106.861,-0.004 -108.3437,-0.0306 -111.6099,-2.02189 z m 222.5851,-1.97857 c 1.8012,-1.09819 3.7137,-3.15081 4.25,-4.56136 1.5262,-4.01409 1.3125,-271.599911 -0.2196,-274.962382 -0.6571,-1.442127 -2.5696,-3.375801 -4.25,-4.297054 -2.7922,-1.530789 -12.0095,-1.700561 -107.0553,-1.971841 -57.2,-0.16326 -105.9411,-0.01891 -108.3134,0.320788 -2.6938,0.385712 -5.51,1.68667 -7.5,3.464682 l -3.1866,2.847058 -0.2641,135.580519 c -0.2919,149.86066 -0.6513,141.19747 5.9767,144.07718 2.7795,1.20763 19.8201,1.4338 110.2874,1.46373 105.2135,0.0348 107.0547,0.002 110.2749,-1.96132 z M 758.23531,306.57694 754.5,303.15387 754.24773,165.32694 C 753.99726,28.48484 754.00992,27.476347 756.01963,24.189824 759.99666,17.686076 754.11457,18 872,18 c 117.88543,0 112.00334,-0.313924 115.98037,6.189824 2.00971,3.286523 2.02237,4.295016 1.7719,141.137116 L 989.5,303.15387 985.76469,306.57694 982.02937,310 H 872 761.97063 Z m 225.99891,-1.49481 3.26578,-2.91788 0.26057,-136.61135 c 0.2892,-151.625271 0.74495,-141.190255 -6.29487,-144.131678 -5.08629,-2.125188 -213.84511,-2.125188 -218.9314,0 -7.03982,2.941423 -6.58407,-7.493593 -6.29487,144.131678 L 756.5,302.16425 759.76578,305.08213 763.03155,308 H 872 980.96845 Z m 271.00108,1.49481 -3.7353,-3.42307 -0.2542,-137.32693 c -0.2392,-129.21239 -0.1506,-137.533752 1.5,-140.82694 0.9986,-1.992456 3.2617,-4.256206 5.2542,-5.25565 3.283,-1.646785 10.2393,-1.739798 112.1845,-1.5 L 1478.869,18.5 l 3.0815,2.952371 c 1.6947,1.623804 3.5322,4.626347 4.0831,6.672318 0.6519,2.421046 0.9082,50.79799 0.734,138.547631 -0.2591,130.53644 -0.328,134.91683 -2.1661,137.62879 -4.0787,6.01791 2.4466,5.69889 -116.5665,5.69889 h -109.0644 z m 223.7922,-0.28105 c 1.3599,-0.93726 3.0207,-2.39976 3.6907,-3.25 0.9438,-1.1977 1.2254,-32.45616 1.25,-138.78011 L 1484,27.031553 1481.0822,23.765777 1478.1644,20.5 1370.5921,20.232433 c -119.5747,-0.297422 -113.2724,-0.635212 -116.1387,6.224828 -1.2794,3.06195 -1.4401,21.523343 -1.214,139.431119 0.2575,134.30744 0.2841,135.92796 2.2606,138.12478 1.1,1.2226 2.9,2.59126 4,3.04148 1.1,0.45022 50.3874,0.84711 109.5275,0.88197 99.7322,0.0588 107.7067,-0.0601 110,-1.64072 z"
     id="path817"
     inkscape:connector-curvature="0" />
  <rect
     style="fill:none;fill-opacity:0.98994978;stroke:none;stroke-width:3.77952766;stroke-miterlimit:4;stroke-dasharray:none;stroke-opacity:1"
     id="rect819"
     width="2269.7339"
     height="1.733945"
     x="0"
     y="327.71561" />
</svg>
