<?xml version="1.0" encoding="UTF-8" standalone="no"?>
<svg baseProfile='full' xmlns:dc="http://purl.org/dc/elements/1.1/" xmlns:cc="http://creativecommons.org/ns#" xmlns:rdf="http://www.w3.org/1999/02/22-rdf-syntax-ns#" xmlns:svg="http://www.w3.org/2000/svg" xmlns="http://www.w3.org/2000/svg" xmlns:xlink="http://www.w3.org/1999/xlink" viewBox="0 0 481.89 664.72" id="templatemaker-giftbox" width="17.0cm" height="23.45cm">
<title>Gift Box</title>
<defs>
	<style type='text/css'>
		text{  font-family:  -apple-system, BlinkMacSystemFont, "Segoe UI", Roboto, Helvetica, Arial, sans-serif, "Segoe UI Symbol"; font-weight: 400; }
</style></defs>
<g id="page" transform="translate(0,0)">
	<g class="pagetext" font-size="10">
		<text x="28.346456692913385" y="14.173228346456693"><tspan font-weight="600">Gift Box </tspan>7×3×5 (cm)</text>
		<text x="28.346456692913385" y="654" >templatemaker.nl (C) Please, refer to the very permissive license!</text>
	</g>
	<g id="page-fold" class="fold" fill='none' stroke='#00adee' stroke-width='0.75' >
		<path id="page-fold-hor-1" d="M 141.73 509.51 L 340.16 509.51"/>
		<path id="page-fold-hor-2" d="M 340.16 367.78 L 141.73 367.78"/>
		<path id="page-fold-glue-hor-left" d="M 56.69 282.74 L 425.2 282.74"/>
		<path id="page-fold-glue-vert-left" d="M 425.2 282.74 L 425.2 141.01"/>
		<path id="page-fold-dust-r" d="M 425.2 141.01 L 340.16 141.01"/>
		<path id="page-fold-dust-l" d="M 141.73 141.01 L 56.69 141.01"/>
		<path id="page-fold-glue-vert-right" d="M 56.69 141.01 L 56.69 282.74"/>
		<path id="page-fold-ver-l" d="M 141.73 282.74 L 141.73 141.01"/>
		<path id="page-fold-ver-r" d="M 340.16 141.01 L 340.16 282.74"/>
		<path id="page-fold-tuck-fold" d="M 158.74 591.72 L 323.15 591.72"/>
	</g>
	<g id="page-cut" class="cut" fill='none' stroke='#d41a5a' stroke-width='2' >
		<path id="page-cut-tuck" d="M 141.73 594.55 L 155.91 594.55 L 158.74 591.72"/>
		<path id="page-cut-tuck-slit2" d="M 323.15 591.72 L 325.98 594.55 L 340.16 594.55"/>
		<path id="page-cut-tuck-tuck" d="M 143.15 594.55 L 143.15 607.31 A 28.35 28.35 0 0 0 171.5 635.65 L 310.39 635.65 A 28.35 28.35 0 0 0 338.74 607.31 L 338.74 594.55"/>
		<path id="page-cut-front-left" d="M 340.16 594.55 L 340.16 509.51 L 340.16 367.78 L 340.16 282.74"/>
		<path id="page-cut-left" d="M 340.16 282.74 L 341.57 282.74 L 346.57 311.09 L 425.2 311.09 L 425.2 282.74 L 425.2 281.32 L 453.54 276.32 L 453.54 147.42 L 425.2 142.43 L 425.2 141.01"/>
		<path id="page-cut-north" d="M 425.2 141.01 L 416.69 132.5 L 411.86 77.23 L 359.77 77.23 L 347.24 124.0 L 341.57 129.67 L 341.57 141.01 L 340.15 141.01 L 255.12 141.01 L 255.12 141.01 A 3.54 3.54 0 0 0 251.57 144.55 L 251.57 144.55 L 251.57 144.55 A 10.63 10.63 0 0 1 240.94 155.18 L 240.94 155.18 A 10.63 10.63 0 0 1 230.31 144.55 L 230.31 144.55 L 230.31 144.55 A 3.54 3.54 0 0 0 226.77 141.01 L 226.77 141.01 L 141.73 141.01 L 140.31 141.01 L 140.31 129.67 L 134.64 124.0 L 122.11 77.23 L 70.03 77.23 L 65.19 132.5 L 56.69 141.01"/>
		<path id="page-cut-right" d="M 56.69 141.01 L 56.69 142.43 L 28.35 147.42 L 28.35 276.32 L 56.69 281.32 L 56.69 282.74 L 56.69 311.09 L 135.32 311.09 L 140.31 282.74 L 141.73 282.74"/>
		<path id="page-cut-front-right" d="M 141.73 282.74 L 141.73 367.78 L 141.73 509.51 L 141.73 594.55"/>
	</g>
	<g id="page-labels" class="labels" fill='#75777a' stroke='none' >
<text dominant-baseline="middle" text-anchor="middle" font-family="sans-serif" font-size="1.1" text-decoration="none" transform="translate(383.39,27.62) rotate(-180)"></text><text dominant-baseline="middle" text-anchor="middle" font-family="sans-serif" font-size="1.1" text-decoration="none" transform="translate(99.21,27.62) rotate(-180)"></text>	</g>
</g>
</svg>