  0
SECTION
  2
HEADER
  9
$ACADVER
  1
AC1014
  9
$HANDSEED
  5
FFFF
  9
$MEASUREMENT
 70
     1
  0
ENDSEC
  0
SECTION
  2
TABLES
  0
TABLE
  2
VPORT
  5
8
330
0
100
AcDbSymbolTable
 70
     4
  0
VPORT
  5
2E
330
8
100
AcDbSymbolTableRecord
100
AcDbViewportTableRecord
  2
*ACTIVE
 70
     0
 10
0.0
 20
0.0
 11
1.0
 21
1.0
 12
210.0
 22
148.5
 13
0.0
 23
0.0
 14
10.0
 24
10.0
 15
10.0
 25
10.0
 16
0.0
 26
0.0
 36
1.0
 17
0.0
 27
0.0
 37
0.0
 40
341.0
 41
1.24
 42
50.0
 43
0.0
 44
0.0
 50
0.0
 51
0.0
 71
     0
 72
   100
 73
     1
 74
     3
 75
     0
 76
     0
 77
     0
 78
     0
  0
ENDTAB
  0
TABLE
  2
LTYPE
  5
5
330
0
100
AcDbSymbolTable
 70
     1
  0
LTYPE
  5
14
330
5
100
AcDbSymbolTableRecord
100
AcDbLinetypeTableRecord
  2
BYBLOCK
 70
     0
  3

 72
    65
 73
     0
 40
0.0
  0
LTYPE
  5
15
330
5
100
AcDbSymbolTableRecord
100
AcDbLinetypeTableRecord
  2
BYLAYER
 70
     0
  3

 72
    65
 73
     0
 40
0.0
  0
LTYPE
  5
16
330
5
100
AcDbSymbolTableRecord
100
AcDbLinetypeTableRecord
  2
CONTINUOUS
 70
     0
  3
Solid line
 72
    65
 73
     0
 40
0.0
  0
ENDTAB
  0
TABLE
  2
LAYER
  5
2
100
AcDbSymbolTable
 70
2
  0
LAYER
  5
50
100
AcDbSymbolTableRecord
100
AcDbLayerTableRecord
  2
0
 70
0
  6
CONTINUOUS
  0
LAYER
  5
51
100
AcDbSymbolTableRecord
100
AcDbLayerTableRecord
  2
Capa_1
 70
0
  6
CONTINUOUS
  0
ENDTAB
  0
TABLE
  2
STYLE
  5
3
330
0
100
AcDbSymbolTable
 70
     1
  0
STYLE
  5
11
330
3
100
AcDbSymbolTableRecord
100
AcDbTextStyleTableRecord
  2
STANDARD
 70
     0
 40
0.0
 41
1.0
 50
0.0
 71
     0
 42
2.5
  3
txt
  4

  0
ENDTAB
  0
TABLE
  2
VIEW
  5
6
330
0
100
AcDbSymbolTable
 70
     0
  0
ENDTAB
  0
TABLE
  2
UCS
  5
7
330
0
100
AcDbSymbolTable
 70
     0
  0
ENDTAB
  0
TABLE
  2
APPID
  5
9
330
0
100
AcDbSymbolTable
 70
     2
  0
APPID
  5
12
330
9
100
AcDbSymbolTableRecord
100
AcDbRegAppTableRecord
  2
ACAD
 70
     0
  0
ENDTAB
  0
TABLE
  2
DIMSTYLE
  5
A
330
0
100
AcDbSymbolTable
 70
     1
  0
DIMSTYLE
105
27
330
A
100
AcDbSymbolTableRecord
100
AcDbDimStyleTableRecord
  2
ISO-25
 70
     0
  3

  4

  5

  6

  7

 40
1.0
 41
2.5
 42
0.625
 43
3.75
 44
1.25
 45
0.0
 46
0.0
 47
0.0
 48
0.0
140
2.5
141
2.5
142
0.0
143
0.03937007874016
144
1.0
145
0.0
146
1.0
147
0.625
 71
     0
 72
     0
 73
     0
 74
     0
 75
     0
 76
     0
 77
     1
 78
     8
170
     0
171
     3
172
     1
173
     0
174
     0
175
     0
176
     0
177
     0
178
     0
270
     2
271
     2
272
     2
273
     2
274
     3
340
11
275
     0
280
     0
281
     0
282
     0
283
     0
284
     8
285
     0
286
     0
287
     3
288
     0
  0
ENDTAB
  0
TABLE
  2
BLOCK_RECORD
  5
1
330
0
100
AcDbSymbolTable
 70
     1
  0
BLOCK_RECORD
  5
1F
330
1
100
AcDbSymbolTableRecord
100
AcDbBlockTableRecord
  2
*MODEL_SPACE
  0
BLOCK_RECORD
  5
1B
330
1
100
AcDbSymbolTableRecord
100
AcDbBlockTableRecord
  2
*PAPER_SPACE
  0
ENDTAB
  0
ENDSEC
  0
SECTION
  2
BLOCKS
  0
BLOCK
  5
20
330
1F
100
AcDbEntity
  8
0
100
AcDbBlockBegin
  2
*MODEL_SPACE
 70
     0
 10
0.0
 20
0.0
 30
0.0
  3
*MODEL_SPACE
  1

  0
ENDBLK
  5
21
330
1F
100
AcDbEntity
  8
0
100
AcDbBlockEnd
  0
BLOCK
  5
1C
330
1B
100
AcDbEntity
 67
     1
  8
0
100
AcDbBlockBegin
  2
*PAPER_SPACE
  1

  0
ENDBLK
  5
1D
330
1B
100
AcDbEntity
 67
     1
  8
0
100
AcDbBlockEnd
  0
ENDSEC
  0
SECTION
  2
ENTITIES
  0
LWPOLYLINE
  5
100
100
AcDbEntity
  8
Capa_1
 62
7
100
AcDbPolyline
 90
2
 70
0
 10
247.107982
 20
1234.877982
 30
0.0
 10
417.177723
 20
1234.877982
 30
0.0
  0
LWPOLYLINE
  5
101
100
AcDbEntity
  8
Capa_1
 62
7
100
AcDbPolyline
 90
2
 70
0
 10
417.177723
 20
1319.917852
 30
0.0
 10
247.107982
 20
1319.917852
 30
0.0
  0
LWPOLYLINE
  5
102
100
AcDbEntity
  8
Capa_1
 62
7
100
AcDbPolyline
 90
4
 70
0
 10
105.368198
 20
1461.647636
 30
0.0
 10
558.917507
 20
1461.647636
 30
0.0
 10
558.917507
 20
1546.687506
 30
0.0
 10
417.177723
 20
1546.687506
 30
0.0
  0
LWPOLYLINE
  5
103
100
AcDbEntity
  8
Capa_1
 62
7
100
AcDbPolyline
 90
3
 70
0
 10
247.107982
 20
1546.687506
 30
0.0
 10
105.368198
 20
1546.687506
 30
0.0
 10
105.368198
 20
1461.647636
 30
0.0
  0
LWPOLYLINE
  5
104
100
AcDbEntity
  8
Capa_1
 62
7
100
AcDbPolyline
 90
2
 70
0
 10
247.107982
 20
1461.647636
 30
0.0
 10
247.107982
 20
1546.687506
 30
0.0
  0
LWPOLYLINE
  5
105
100
AcDbEntity
  8
Capa_1
 62
7
100
AcDbPolyline
 90
2
 70
0
 10
417.177723
 20
1546.687506
 30
0.0
 10
417.177723
 20
1461.647636
 30
0.0
  0
LWPOLYLINE
  5
106
100
AcDbEntity
  8
Capa_1
 62
7
100
AcDbPolyline
 90
2
 70
0
 10
264.107956
 20
1095.978193
 30
0.0
 10
400.177749
 20
1095.978193
 30
0.0
  0
LWPOLYLINE
  5
107
100
AcDbEntity
  8
Capa_1
 62
7
100
AcDbPolyline
 90
3
 70
0
 10
247.107982
 20
1093.148198
 30
0.0
 10
261.277960
 20
1093.148198
 30
0.0
 10
264.107956
 20
1095.978193
 30
0.0
  0
SPLINE
  5
108
100
AcDbEntity
  8
Capa_1
 62
7
100
AcDbSpline
 70
8
 71
3
 72
8
 73
4
 74
0
 40
0
 40
0
 40
0
 40
0
 40
1
 40
1
 40
1
 40
1
 10
248.517980
 20
1093.148198
 30
0.0
 10
248.517980
 20
1093.148198
 30
0.0
 10
248.517980
 20
1080.388217
 30
0.0
 10
248.517980
 20
1080.388217
 30
0.0
  0
SPLINE
  5
109
100
AcDbEntity
  8
Capa_1
 62
7
100
AcDbSpline
 70
8
 71
3
 72
8
 73
4
 74
0
 40
0
 40
0
 40
0
 40
0
 40
1
 40
1
 40
1
 40
1
 10
248.517980
 20
1080.388217
 30
0.0
 10
248.523501
 20
1064.734874
 30
0.0
 10
261.214592
 20
1052.048259
 30
0.0
 10
276.867937
 20
1052.048260
 30
0.0
  0
LWPOLYLINE
  5
10a
100
AcDbEntity
  8
Capa_1
 62
7
100
AcDbPolyline
 90
3
 70
0
 10
400.177749
 20
1095.978193
 30
0.0
 10
403.007744
 20
1093.148198
 30
0.0
 10
417.177723
 20
1093.148198
 30
0.0
  0
SPLINE
  5
10b
100
AcDbEntity
  8
Capa_1
 62
7
100
AcDbSpline
 70
8
 71
3
 72
8
 73
4
 74
0
 40
0
 40
0
 40
0
 40
0
 40
1
 40
1
 40
1
 40
1
 10
387.417768
 20
1052.048260
 30
0.0
 10
403.071112
 20
1052.048259
 30
0.0
 10
415.762203
 20
1064.734874
 30
0.0
 10
415.767725
 20
1080.388217
 30
0.0
  0
LWPOLYLINE
  5
10c
100
AcDbEntity
  8
Capa_1
 62
7
100
AcDbPolyline
 90
2
 70
0
 10
276.867937
 20
1052.048260
 30
0.0
 10
387.417768
 20
1052.048260
 30
0.0
  0
LWPOLYLINE
  5
10d
100
AcDbEntity
  8
Capa_1
 62
7
100
AcDbPolyline
 90
2
 70
0
 10
415.767725
 20
1080.388217
 30
0.0
 10
415.767725
 20
1093.148198
 30
0.0
  0
SPLINE
  5
10e
100
AcDbEntity
  8
Capa_1
 62
7
100
AcDbSpline
 70
8
 71
3
 72
8
 73
4
 74
0
 40
0
 40
0
 40
0
 40
0
 40
1
 40
1
 40
1
 40
1
 10
346.317831
 20
1546.687506
 30
0.0
 10
345.377234
 20
1546.690163
 30
0.0
 10
344.474252
 20
1546.318374
 30
0.0
 10
343.808210
 20
1545.654208
 30
0.0
  0
SPLINE
  5
10f
100
AcDbEntity
  8
Capa_1
 62
7
100
AcDbSpline
 70
8
 71
3
 72
8
 73
4
 74
0
 40
0
 40
0
 40
0
 40
0
 40
1
 40
1
 40
1
 40
1
 10
343.808210
 20
1545.654208
 30
0.0
 10
343.142167
 20
1544.990042
 30
0.0
 10
342.767832
 20
1544.088112
 30
0.0
 10
342.767836
 20
1543.147512
 30
0.0
  0
LWPOLYLINE
  5
110
100
AcDbEntity
  8
Capa_1
 62
7
100
AcDbPolyline
 90
22
 70
0
 10
417.177723
 20
1093.148198
 30
0.0
 10
417.177723
 20
1234.877982
 30
0.0
 10
417.177723
 20
1319.917852
 30
0.0
 10
417.177723
 20
1461.647636
 30
0.0
 10
418.597721
 20
1461.647636
 30
0.0
 10
423.597713
 20
1433.307679
 30
0.0
 10
558.917507
 20
1433.307679
 30
0.0
 10
558.917507
 20
1461.647636
 30
0.0
 10
558.917507
 20
1463.067634
 30
0.0
 10
587.257463
 20
1468.067626
 30
0.0
 10
587.257463
 20
1540.277516
 30
0.0
 10
558.917507
 20
1545.267508
 30
0.0
 10
558.917507
 20
1546.687506
 30
0.0
 10
550.407520
 20
1555.197493
 30
0.0
 10
545.197528
 20
1614.717403
 30
0.0
 10
437.937691
 20
1614.717403
 30
0.0
 10
424.267712
 20
1563.697480
 30
0.0
 10
418.597721
 20
1558.027489
 30
0.0
 10
418.597721
 20
1546.687506
 30
0.0
 10
417.177723
 20
1546.687506
 30
0.0
 10
346.317831
 20
1546.687506
 30
0.0
 10
346.317831
 20
1546.687506
 30
0.0
  0
SPLINE
  5
111
100
AcDbEntity
  8
Capa_1
 62
7
100
AcDbSpline
 70
8
 71
3
 72
8
 73
4
 74
0
 40
0
 40
0
 40
0
 40
0
 40
1
 40
1
 40
1
 40
1
 10
342.767836
 20
1543.147512
 30
0.0
 10
342.767836
 20
1537.276734
 30
0.0
 10
338.008630
 20
1532.517528
 30
0.0
 10
332.137852
 20
1532.517528
 30
0.0
  0
SPLINE
  5
112
100
AcDbEntity
  8
Capa_1
 62
7
100
AcDbSpline
 70
8
 71
3
 72
8
 73
4
 74
0
 40
0
 40
0
 40
0
 40
0
 40
1
 40
1
 40
1
 40
1
 10
332.137852
 20
1532.517528
 30
0.0
 10
332.137852
 20
1532.517528
 30
0.0
 10
332.137852
 20
1532.517528
 30
0.0
 10
332.137852
 20
1532.517528
 30
0.0
  0
SPLINE
  5
113
100
AcDbEntity
  8
Capa_1
 62
7
100
AcDbSpline
 70
8
 71
3
 72
8
 73
4
 74
0
 40
0
 40
0
 40
0
 40
0
 40
1
 40
1
 40
1
 40
1
 10
332.137852
 20
1532.517528
 30
0.0
 10
329.318605
 20
1532.517528
 30
0.0
 10
326.614827
 20
1533.637469
 30
0.0
 10
324.621319
 20
1535.630978
 30
0.0
  0
SPLINE
  5
114
100
AcDbEntity
  8
Capa_1
 62
7
100
AcDbSpline
 70
8
 71
3
 72
8
 73
4
 74
0
 40
0
 40
0
 40
0
 40
0
 40
1
 40
1
 40
1
 40
1
 10
324.621319
 20
1535.630978
 30
0.0
 10
322.627810
 20
1537.624487
 30
0.0
 10
321.507869
 20
1540.328265
 30
0.0
 10
321.507869
 20
1543.147512
 30
0.0
  0
LWPOLYLINE
  5
115
100
AcDbEntity
  8
Capa_1
 62
7
100
AcDbPolyline
 90
2
 70
1
 10
342.767836
 20
1543.147512
 30
0.0
 10
342.767836
 20
1543.147512
 30
0.0
  0
SPLINE
  5
116
100
AcDbEntity
  8
Capa_1
 62
7
100
AcDbSpline
 70
8
 71
3
 72
8
 73
4
 74
0
 40
0
 40
0
 40
0
 40
0
 40
1
 40
1
 40
1
 40
1
 10
321.507869
 20
1543.147512
 30
0.0
 10
321.507869
 20
1544.086377
 30
0.0
 10
321.134906
 20
1544.986788
 30
0.0
 10
320.471028
 20
1545.650666
 30
0.0
  0
SPLINE
  5
117
100
AcDbEntity
  8
Capa_1
 62
7
100
AcDbSpline
 70
8
 71
3
 72
8
 73
4
 74
0
 40
0
 40
0
 40
0
 40
0
 40
1
 40
1
 40
1
 40
1
 10
320.471028
 20
1545.650666
 30
0.0
 10
319.807150
 20
1546.314544
 30
0.0
 10
318.906739
 20
1546.687506
 30
0.0
 10
317.967874
 20
1546.687506
 30
0.0
  0
LWPOLYLINE
  5
118
100
AcDbEntity
  8
Capa_1
 62
7
100
AcDbPolyline
 90
2
 70
1
 10
321.507869
 20
1543.147512
 30
0.0
 10
321.507869
 20
1543.147512
 30
0.0
  0
LWPOLYLINE
  5
119
100
AcDbEntity
  8
Capa_1
 62
7
100
AcDbPolyline
 90
22
 70
0
 10
317.967874
 20
1546.687506
 30
0.0
 10
317.967874
 20
1546.687506
 30
0.0
 10
247.097982
 20
1546.687506
 30
0.0
 10
245.687984
 20
1546.687506
 30
0.0
 10
245.687984
 20
1558.027489
 30
0.0
 10
240.017993
 20
1563.697480
 30
0.0
 10
226.338014
 20
1614.717403
 30
0.0
 10
119.078177
 20
1614.717403
 30
0.0
 10
113.868185
 20
1555.197493
 30
0.0
 10
105.368198
 20
1546.687506
 30
0.0
 10
105.368198
 20
1545.267508
 30
0.0
 10
77.028241
 20
1540.277516
 30
0.0
 10
77.028241
 20
1468.067626
 30
0.0
 10
105.368198
 20
1463.067634
 30
0.0
 10
105.368198
 20
1461.647636
 30
0.0
 10
105.368198
 20
1433.307679
 30
0.0
 10
240.687992
 20
1433.307679
 30
0.0
 10
245.687984
 20
1461.647636
 30
0.0
 10
247.107982
 20
1461.647636
 30
0.0
 10
247.107982
 20
1319.917852
 30
0.0
 10
247.107982
 20
1234.877982
 30
0.0
 10
247.107982
 20
1093.148198
 30
0.0
  0
LWPOLYLINE
  5
11a
100
AcDbEntity
  8
Capa_1
 62
7
100
AcDbPolyline
 90
2
 70
0
 10
283.526798
 20
359.014426
 30
0.0
 10
453.606052
 20
359.014426
 30
0.0
  0
LWPOLYLINE
  5
11b
100
AcDbEntity
  8
Capa_1
 62
7
100
AcDbPolyline
 90
2
 70
0
 10
453.606052
 20
529.093680
 30
0.0
 10
283.526798
 20
529.093680
 30
0.0
  0
LWPOLYLINE
  5
11c
100
AcDbEntity
  8
Capa_1
 62
7
100
AcDbPolyline
 90
4
 70
0
 10
113.447544
 20
699.172934
 30
0.0
 10
623.685305
 20
699.172934
 30
0.0
 10
623.685305
 20
869.242188
 30
0.0
 10
453.606052
 20
869.242188
 30
0.0
  0
LWPOLYLINE
  5
11d
100
AcDbEntity
  8
Capa_1
 62
7
100
AcDbPolyline
 90
3
 70
0
 10
283.526798
 20
869.242188
 30
0.0
 10
113.447544
 20
869.242188
 30
0.0
 10
113.447544
 20
699.172934
 30
0.0
  0
LWPOLYLINE
  5
11e
100
AcDbEntity
  8
Capa_1
 62
7
100
AcDbPolyline
 90
2
 70
0
 10
283.526798
 20
699.172934
 30
0.0
 10
283.526798
 20
869.242188
 30
0.0
  0
LWPOLYLINE
  5
11f
100
AcDbEntity
  8
Capa_1
 62
7
100
AcDbPolyline
 90
2
 70
0
 10
453.606052
 20
869.242188
 30
0.0
 10
453.606052
 20
699.172934
 30
0.0
  0
LWPOLYLINE
  5
120
100
AcDbEntity
  8
Capa_1
 62
7
100
AcDbPolyline
 90
2
 70
0
 10
300.536723
 20
191.765160
 30
0.0
 10
436.596126
 20
191.765160
 30
0.0
  0
LWPOLYLINE
  5
121
100
AcDbEntity
  8
Capa_1
 62
7
100
AcDbPolyline
 90
3
 70
0
 10
283.526798
 20
188.935172
 30
0.0
 10
297.696736
 20
188.935172
 30
0.0
 10
300.536723
 20
191.765160
 30
0.0
  0
SPLINE
  5
122
100
AcDbEntity
  8
Capa_1
 62
7
100
AcDbSpline
 70
8
 71
3
 72
8
 73
4
 74
0
 40
0
 40
0
 40
0
 40
0
 40
1
 40
1
 40
1
 40
1
 10
284.946792
 20
188.935172
 30
0.0
 10
284.946792
 20
188.935172
 30
0.0
 10
284.946792
 20
176.175228
 30
0.0
 10
284.946792
 20
176.175228
 30
0.0
  0
SPLINE
  5
123
100
AcDbEntity
  8
Capa_1
 62
7
100
AcDbSpline
 70
8
 71
3
 72
8
 73
4
 74
0
 40
0
 40
0
 40
0
 40
0
 40
1
 40
1
 40
1
 40
1
 10
284.946792
 20
176.175228
 30
0.0
 10
284.952313
 20
160.521930
 30
0.0
 10
297.643368
 20
147.835352
 30
0.0
 10
313.296667
 20
147.835353
 30
0.0
  0
LWPOLYLINE
  5
124
100
AcDbEntity
  8
Capa_1
 62
7
100
AcDbPolyline
 90
3
 70
0
 10
436.596126
 20
191.765160
 30
0.0
 10
439.436114
 20
188.935172
 30
0.0
 10
453.606052
 20
188.935172
 30
0.0
  0
SPLINE
  5
125
100
AcDbEntity
  8
Capa_1
 62
7
100
AcDbSpline
 70
8
 71
3
 72
8
 73
4
 74
0
 40
0
 40
0
 40
0
 40
0
 40
1
 40
1
 40
1
 40
1
 10
423.846182
 20
147.835353
 30
0.0
 10
439.495577
 20
147.840872
 30
0.0
 10
452.180539
 20
160.525834
 30
0.0
 10
452.186058
 20
176.175228
 30
0.0
  0
LWPOLYLINE
  5
126
100
AcDbEntity
  8
Capa_1
 62
7
100
AcDbPolyline
 90
2
 70
0
 10
313.296667
 20
147.835353
 30
0.0
 10
423.846182
 20
147.835353
 30
0.0
  0
LWPOLYLINE
  5
127
100
AcDbEntity
  8
Capa_1
 62
7
100
AcDbPolyline
 90
2
 70
0
 10
452.186058
 20
176.175228
 30
0.0
 10
452.186058
 20
188.935172
 30
0.0
  0
SPLINE
  5
128
100
AcDbEntity
  8
Capa_1
 62
7
100
AcDbSpline
 70
8
 71
3
 72
8
 73
4
 74
0
 40
0
 40
0
 40
0
 40
0
 40
1
 40
1
 40
1
 40
1
 10
382.736363
 20
869.242188
 30
0.0
 10
382.736363
 20
869.242188
 30
0.0
 10
382.736363
 20
869.242188
 30
0.0
 10
382.736363
 20
869.242188
 30
0.0
  0
SPLINE
  5
129
100
AcDbEntity
  8
Capa_1
 62
7
100
AcDbSpline
 70
8
 71
3
 72
8
 73
4
 74
0
 40
0
 40
0
 40
0
 40
0
 40
1
 40
1
 40
1
 40
1
 10
382.736363
 20
869.242188
 30
0.0
 10
381.797500
 20
869.242188
 30
0.0
 10
380.897091
 20
868.869226
 30
0.0
 10
380.233216
 20
868.205350
 30
0.0
  0
SPLINE
  5
12a
100
AcDbEntity
  8
Capa_1
 62
7
100
AcDbSpline
 70
8
 71
3
 72
8
 73
4
 74
0
 40
0
 40
0
 40
0
 40
0
 40
1
 40
1
 40
1
 40
1
 10
380.233216
 20
868.205350
 30
0.0
 10
379.569340
 20
867.541474
 30
0.0
 10
379.196378
 20
866.641065
 30
0.0
 10
379.196378
 20
865.702203
 30
0.0
  0
LWPOLYLINE
  5
12b
100
AcDbEntity
  8
Capa_1
 62
7
100
AcDbPolyline
 90
21
 70
0
 10
453.606052
 20
188.935172
 30
0.0
 10
453.606052
 20
359.014426
 30
0.0
 10
453.606052
 20
529.093680
 30
0.0
 10
453.606052
 20
699.172934
 30
0.0
 10
455.026045
 20
699.172934
 30
0.0
 10
460.026023
 20
670.823058
 30
0.0
 10
623.685305
 20
670.823058
 30
0.0
 10
623.685305
 20
699.172934
 30
0.0
 10
623.685305
 20
700.582928
 30
0.0
 10
652.035181
 20
705.582906
 30
0.0
 10
652.035181
 20
862.832216
 30
0.0
 10
623.685305
 20
867.832194
 30
0.0
 10
623.685305
 20
869.242188
 30
0.0
 10
615.185343
 20
877.752150
 30
0.0
 10
609.975366
 20
937.281889
 30
0.0
 10
474.365961
 20
937.281889
 30
0.0
 10
460.686021
 20
886.252113
 30
0.0
 10
455.026045
 20
880.582138
 30
0.0
 10
455.026045
 20
869.242188
 30
0.0
 10
453.606052
 20
869.242188
 30
0.0
 10
382.736363
 20
869.242188
 30
0.0
  0
SPLINE
  5
12c
100
AcDbEntity
  8
Capa_1
 62
7
100
AcDbSpline
 70
8
 71
3
 72
8
 73
4
 74
0
 40
0
 40
0
 40
0
 40
0
 40
1
 40
1
 40
1
 40
1
 10
379.196378
 20
865.702203
 30
0.0
 10
379.196378
 20
865.702203
 30
0.0
 10
379.196378
 20
865.702203
 30
0.0
 10
379.196378
 20
865.702203
 30
0.0
  0
SPLINE
  5
12d
100
AcDbEntity
  8
Capa_1
 62
7
100
AcDbSpline
 70
8
 71
3
 72
8
 73
4
 74
0
 40
0
 40
0
 40
0
 40
0
 40
1
 40
1
 40
1
 40
1
 10
379.196378
 20
865.702203
 30
0.0
 10
379.196378
 20
862.882964
 30
0.0
 10
378.076440
 20
860.179194
 30
0.0
 10
376.082937
 20
858.185691
 30
0.0
  0
SPLINE
  5
12e
100
AcDbEntity
  8
Capa_1
 62
7
100
AcDbSpline
 70
8
 71
3
 72
8
 73
4
 74
0
 40
0
 40
0
 40
0
 40
0
 40
1
 40
1
 40
1
 40
1
 10
376.082937
 20
858.185691
 30
0.0
 10
374.089434
 20
856.192188
 30
0.0
 10
371.385664
 20
855.072250
 30
0.0
 10
368.566425
 20
855.072250
 30
0.0
  0
LWPOLYLINE
  5
12f
100
AcDbEntity
  8
Capa_1
 62
7
100
AcDbPolyline
 90
1
 70
1
 10
379.196378
 20
865.702203
 30
0.0
  0
SPLINE
  5
130
100
AcDbEntity
  8
Capa_1
 62
7
100
AcDbSpline
 70
8
 71
3
 72
8
 73
4
 74
0
 40
0
 40
0
 40
0
 40
0
 40
1
 40
1
 40
1
 40
1
 10
368.566425
 20
855.072250
 30
0.0
 10
365.747186
 20
855.072250
 30
0.0
 10
363.043416
 20
856.192188
 30
0.0
 10
361.049913
 20
858.185691
 30
0.0
  0
SPLINE
  5
131
100
AcDbEntity
  8
Capa_1
 62
7
100
AcDbSpline
 70
8
 71
3
 72
8
 73
4
 74
0
 40
0
 40
0
 40
0
 40
0
 40
1
 40
1
 40
1
 40
1
 10
361.049913
 20
858.185691
 30
0.0
 10
359.056410
 20
860.179194
 30
0.0
 10
357.936471
 20
862.882964
 30
0.0
 10
357.936471
 20
865.702203
 30
0.0
  0
LWPOLYLINE
  5
132
100
AcDbEntity
  8
Capa_1
 62
7
100
AcDbPolyline
 90
1
 70
1
 10
368.566425
 20
855.072250
 30
0.0
  0
SPLINE
  5
133
100
AcDbEntity
  8
Capa_1
 62
7
100
AcDbSpline
 70
8
 71
3
 72
8
 73
4
 74
0
 40
0
 40
0
 40
0
 40
0
 40
1
 40
1
 40
1
 40
1
 10
357.936471
 20
865.702203
 30
0.0
 10
357.936471
 20
865.702203
 30
0.0
 10
357.936471
 20
865.702203
 30
0.0
 10
357.936471
 20
865.702203
 30
0.0
  0
SPLINE
  5
134
100
AcDbEntity
  8
Capa_1
 62
7
100
AcDbSpline
 70
8
 71
3
 72
8
 73
4
 74
0
 40
0
 40
0
 40
0
 40
0
 40
1
 40
1
 40
1
 40
1
 10
357.936471
 20
865.702203
 30
0.0
 10
357.936471
 20
866.641065
 30
0.0
 10
357.563510
 20
867.541474
 30
0.0
 10
356.899634
 20
868.205350
 30
0.0
  0
SPLINE
  5
135
100
AcDbEntity
  8
Capa_1
 62
7
100
AcDbSpline
 70
8
 71
3
 72
8
 73
4
 74
0
 40
0
 40
0
 40
0
 40
0
 40
1
 40
1
 40
1
 40
1
 10
356.899634
 20
868.205350
 30
0.0
 10
356.235758
 20
868.869226
 30
0.0
 10
355.335349
 20
869.242188
 30
0.0
 10
354.396487
 20
869.242188
 30
0.0
  0
LWPOLYLINE
  5
136
100
AcDbEntity
  8
Capa_1
 62
7
100
AcDbPolyline
 90
1
 70
1
 10
357.936471
 20
865.702203
 30
0.0
  0
LWPOLYLINE
  5
137
100
AcDbEntity
  8
Capa_1
 62
7
100
AcDbPolyline
 90
22
 70
0
 10
354.396487
 20
869.242188
 30
0.0
 10
354.396487
 20
869.242188
 30
0.0
 10
283.526798
 20
869.242188
 30
0.0
 10
282.106804
 20
869.242188
 30
0.0
 10
282.106804
 20
880.582138
 30
0.0
 10
276.436829
 20
886.252113
 30
0.0
 10
262.766889
 20
937.281889
 30
0.0
 10
127.157484
 20
937.281889
 30
0.0
 10
121.947507
 20
877.752150
 30
0.0
 10
113.447544
 20
869.242188
 30
0.0
 10
113.447544
 20
867.832194
 30
0.0
 10
85.107668
 20
862.832216
 30
0.0
 10
85.107668
 20
705.582906
 30
0.0
 10
113.447544
 20
700.582928
 30
0.0
 10
113.447544
 20
699.172934
 30
0.0
 10
113.447544
 20
670.823058
 30
0.0
 10
277.116826
 20
670.823058
 30
0.0
 10
282.106804
 20
699.172934
 30
0.0
 10
283.526798
 20
699.172934
 30
0.0
 10
283.526798
 20
529.093680
 30
0.0
 10
283.526798
 20
359.014426
 30
0.0
 10
283.526798
 20
188.935172
 30
0.0
  0
LWPOLYLINE
  5
138
100
AcDbEntity
  8
Capa_1
 62
7
100
AcDbPolyline
 90
2
 70
0
 10
743.999189
 20
1173.902173
 30
0.0
 10
942.429095
 20
1173.902173
 30
0.0
  0
LWPOLYLINE
  5
139
100
AcDbEntity
  8
Capa_1
 62
7
100
AcDbPolyline
 90
2
 70
0
 10
942.429095
 20
1315.632106
 30
0.0
 10
743.999189
 20
1315.632106
 30
0.0
  0
LWPOLYLINE
  5
13a
100
AcDbEntity
  8
Capa_1
 62
7
100
AcDbPolyline
 90
4
 70
0
 10
658.959230
 20
1400.672065
 30
0.0
 10
1027.469054
 20
1400.672065
 30
0.0
 10
1027.469054
 20
1542.401998
 30
0.0
 10
942.429095
 20
1542.401998
 30
0.0
  0
LWPOLYLINE
  5
13b
100
AcDbEntity
  8
Capa_1
 62
7
100
AcDbPolyline
 90
3
 70
0
 10
743.999189
 20
1542.401998
 30
0.0
 10
658.959230
 20
1542.401998
 30
0.0
 10
658.959230
 20
1400.672065
 30
0.0
  0
LWPOLYLINE
  5
13c
100
AcDbEntity
  8
Capa_1
 62
7
100
AcDbPolyline
 90
2
 70
0
 10
743.999189
 20
1400.672065
 30
0.0
 10
743.999189
 20
1542.401998
 30
0.0
  0
LWPOLYLINE
  5
13d
100
AcDbEntity
  8
Capa_1
 62
7
100
AcDbPolyline
 90
2
 70
0
 10
942.429095
 20
1542.401998
 30
0.0
 10
942.429095
 20
1400.672065
 30
0.0
  0
LWPOLYLINE
  5
13e
100
AcDbEntity
  8
Capa_1
 62
7
100
AcDbPolyline
 90
2
 70
0
 10
761.009181
 20
1091.692212
 30
0.0
 10
925.419103
 20
1091.692212
 30
0.0
  0
LWPOLYLINE
  5
13f
100
AcDbEntity
  8
Capa_1
 62
7
100
AcDbPolyline
 90
3
 70
0
 10
743.999189
 20
1088.862213
 30
0.0
 10
758.179183
 20
1088.862213
 30
0.0
 10
761.009181
 20
1091.692212
 30
0.0
  0
SPLINE
  5
140
100
AcDbEntity
  8
Capa_1
 62
7
100
AcDbSpline
 70
8
 71
3
 72
8
 73
4
 74
0
 40
0
 40
0
 40
0
 40
0
 40
1
 40
1
 40
1
 40
1
 10
745.419189
 20
1088.862213
 30
0.0
 10
745.419189
 20
1088.862213
 30
0.0
 10
745.419189
 20
1076.102220
 30
0.0
 10
745.419189
 20
1076.102220
 30
0.0
  0
SPLINE
  5
141
100
AcDbEntity
  8
Capa_1
 62
7
100
AcDbSpline
 70
8
 71
3
 72
8
 73
4
 74
0
 40
0
 40
0
 40
0
 40
0
 40
1
 40
1
 40
1
 40
1
 10
745.419189
 20
1076.102220
 30
0.0
 10
745.424710
 20
1060.448860
 30
0.0
 10
758.115814
 20
1047.762232
 30
0.0
 10
773.769175
 20
1047.762233
 30
0.0
  0
LWPOLYLINE
  5
142
100
AcDbEntity
  8
Capa_1
 62
7
100
AcDbPolyline
 90
3
 70
0
 10
925.419103
 20
1091.692212
 30
0.0
 10
928.249102
 20
1088.862213
 30
0.0
 10
942.429095
 20
1088.862213
 30
0.0
  0
SPLINE
  5
143
100
AcDbEntity
  8
Capa_1
 62
7
100
AcDbSpline
 70
8
 71
3
 72
8
 73
4
 74
0
 40
0
 40
0
 40
0
 40
0
 40
1
 40
1
 40
1
 40
1
 10
912.659109
 20
1047.762233
 30
0.0
 10
928.312470
 20
1047.762232
 30
0.0
 10
941.003574
 20
1060.448860
 30
0.0
 10
941.009096
 20
1076.102220
 30
0.0
  0
LWPOLYLINE
  5
144
100
AcDbEntity
  8
Capa_1
 62
7
100
AcDbPolyline
 90
2
 70
0
 10
773.769175
 20
1047.762233
 30
0.0
 10
912.659109
 20
1047.762233
 30
0.0
  0
LWPOLYLINE
  5
145
100
AcDbEntity
  8
Capa_1
 62
7
100
AcDbPolyline
 90
2
 70
0
 10
941.009096
 20
1076.102220
 30
0.0
 10
941.009096
 20
1088.862213
 30
0.0
  0
SPLINE
  5
146
100
AcDbEntity
  8
Capa_1
 62
7
100
AcDbSpline
 70
8
 71
3
 72
8
 73
4
 74
0
 40
0
 40
0
 40
0
 40
0
 40
1
 40
1
 40
1
 40
1
 10
857.389135
 20
1542.401998
 30
0.0
 10
856.448538
 20
1542.404655
 30
0.0
 10
855.545554
 20
1542.032865
 30
0.0
 10
854.879512
 20
1541.368698
 30
0.0
  0
SPLINE
  5
147
100
AcDbEntity
  8
Capa_1
 62
7
100
AcDbSpline
 70
8
 71
3
 72
8
 73
4
 74
0
 40
0
 40
0
 40
0
 40
0
 40
1
 40
1
 40
1
 40
1
 10
854.879512
 20
1541.368698
 30
0.0
 10
854.213469
 20
1540.704532
 30
0.0
 10
853.839133
 20
1539.802601
 30
0.0
 10
853.839137
 20
1538.861999
 30
0.0
  0
LWPOLYLINE
  5
148
100
AcDbEntity
  8
Capa_1
 62
7
100
AcDbPolyline
 90
22
 70
0
 10
942.429095
 20
1088.862213
 30
0.0
 10
942.429095
 20
1173.902173
 30
0.0
 10
942.429095
 20
1315.632106
 30
0.0
 10
942.429095
 20
1400.672065
 30
0.0
 10
943.839094
 20
1400.672065
 30
0.0
 10
948.839092
 20
1372.322079
 30
0.0
 10
1027.469054
 20
1372.322079
 30
0.0
 10
1027.469054
 20
1400.672065
 30
0.0
 10
1027.469054
 20
1402.092065
 30
0.0
 10
1055.809041
 20
1407.092062
 30
0.0
 10
1055.809041
 20
1535.992001
 30
0.0
 10
1027.469054
 20
1540.981998
 30
0.0
 10
1027.469054
 20
1542.401998
 30
0.0
 10
1018.959059
 20
1550.911994
 30
0.0
 10
1014.129061
 20
1606.181967
 30
0.0
 10
962.039086
 20
1606.181967
 30
0.0
 10
949.509092
 20
1559.411990
 30
0.0
 10
943.839094
 20
1553.741992
 30
0.0
 10
943.839094
 20
1542.401998
 30
0.0
 10
942.419095
 20
1542.401998
 30
0.0
 10
857.389135
 20
1542.401998
 30
0.0
 10
857.389135
 20
1542.401998
 30
0.0
  0
SPLINE
  5
149
100
AcDbEntity
  8
Capa_1
 62
7
100
AcDbSpline
 70
8
 71
3
 72
8
 73
4
 74
0
 40
0
 40
0
 40
0
 40
0
 40
1
 40
1
 40
1
 40
1
 10
853.839137
 20
1538.861999
 30
0.0
 10
853.839137
 20
1536.042750
 30
0.0
 10
852.719194
 20
1533.338969
 30
0.0
 10
850.725684
 20
1531.345458
 30
0.0
  0
SPLINE
  5
14a
100
AcDbEntity
  8
Capa_1
 62
7
100
AcDbSpline
 70
8
 71
3
 72
8
 73
4
 74
0
 40
0
 40
0
 40
0
 40
0
 40
1
 40
1
 40
1
 40
1
 10
850.725684
 20
1531.345458
 30
0.0
 10
848.732173
 20
1529.351947
 30
0.0
 10
846.028392
 20
1528.232005
 30
0.0
 10
843.209142
 20
1528.232005
 30
0.0
  0
LWPOLYLINE
  5
14b
100
AcDbEntity
  8
Capa_1
 62
7
100
AcDbPolyline
 90
2
 70
1
 10
853.839137
 20
1538.861999
 30
0.0
 10
853.839137
 20
1538.861999
 30
0.0
  0
SPLINE
  5
14c
100
AcDbEntity
  8
Capa_1
 62
7
100
AcDbSpline
 70
8
 71
3
 72
8
 73
4
 74
0
 40
0
 40
0
 40
0
 40
0
 40
1
 40
1
 40
1
 40
1
 10
843.209142
 20
1528.232005
 30
0.0
 10
840.389892
 20
1528.232005
 30
0.0
 10
837.686111
 20
1529.351947
 30
0.0
 10
835.692601
 20
1531.345458
 30
0.0
  0
SPLINE
  5
14d
100
AcDbEntity
  8
Capa_1
 62
7
100
AcDbSpline
 70
8
 71
3
 72
8
 73
4
 74
0
 40
0
 40
0
 40
0
 40
0
 40
1
 40
1
 40
1
 40
1
 10
835.692601
 20
1531.345458
 30
0.0
 10
833.699090
 20
1533.338969
 30
0.0
 10
832.579147
 20
1536.042750
 30
0.0
 10
832.579147
 20
1538.861999
 30
0.0
  0
LWPOLYLINE
  5
14e
100
AcDbEntity
  8
Capa_1
 62
7
100
AcDbPolyline
 90
1
 70
1
 10
843.209142
 20
1528.232005
 30
0.0
  0
SPLINE
  5
14f
100
AcDbEntity
  8
Capa_1
 62
7
100
AcDbSpline
 70
8
 71
3
 72
8
 73
4
 74
0
 40
0
 40
0
 40
0
 40
0
 40
1
 40
1
 40
1
 40
1
 10
832.579147
 20
1538.861999
 30
0.0
 10
832.579147
 20
1539.800865
 30
0.0
 10
832.206184
 20
1540.701278
 30
0.0
 10
831.542306
 20
1541.365156
 30
0.0
  0
SPLINE
  5
150
100
AcDbEntity
  8
Capa_1
 62
7
100
AcDbSpline
 70
8
 71
3
 72
8
 73
4
 74
0
 40
0
 40
0
 40
0
 40
0
 40
1
 40
1
 40
1
 40
1
 10
831.542306
 20
1541.365156
 30
0.0
 10
830.878427
 20
1542.029035
 30
0.0
 10
829.978015
 20
1542.401998
 30
0.0
 10
829.039149
 20
1542.401998
 30
0.0
  0
LWPOLYLINE
  5
151
100
AcDbEntity
  8
Capa_1
 62
7
100
AcDbPolyline
 90
2
 70
1
 10
832.579147
 20
1538.861999
 30
0.0
 10
832.579147
 20
1538.861999
 30
0.0
  0
LWPOLYLINE
  5
152
100
AcDbEntity
  8
Capa_1
 62
7
100
AcDbPolyline
 90
22
 70
0
 10
829.039149
 20
1542.401998
 30
0.0
 10
829.039149
 20
1542.401998
 30
0.0
 10
743.999189
 20
1542.401998
 30
0.0
 10
742.579190
 20
1542.401998
 30
0.0
 10
742.579190
 20
1553.741992
 30
0.0
 10
736.909193
 20
1559.411990
 30
0.0
 10
724.379199
 20
1606.181967
 30
0.0
 10
672.299223
 20
1606.181967
 30
0.0
 10
667.459226
 20
1550.911994
 30
0.0
 10
658.959230
 20
1542.401998
 30
0.0
 10
658.959230
 20
1540.981998
 30
0.0
 10
630.619243
 20
1535.992001
 30
0.0
 10
630.619243
 20
1407.092062
 30
0.0
 10
658.959230
 20
1402.092065
 30
0.0
 10
658.959230
 20
1400.672065
 30
0.0
 10
658.959230
 20
1372.322079
 30
0.0
 10
737.589192
 20
1372.322079
 30
0.0
 10
742.579190
 20
1400.672065
 30
0.0
 10
743.999189
 20
1400.672065
 30
0.0
 10
743.999189
 20
1315.632106
 30
0.0
 10
743.999189
 20
1173.902173
 30
0.0
 10
743.999189
 20
1088.862213
 30
0.0
  0
LWPOLYLINE
  5
153
100
AcDbEntity
  8
Capa_1
 62
7
100
AcDbPolyline
 90
2
 70
0
 10
700.076435
 20
247.164197
 30
0.0
 10
898.494974
 20
247.164197
 30
0.0
  0
LWPOLYLINE
  5
154
100
AcDbEntity
  8
Capa_1
 62
7
100
AcDbPolyline
 90
2
 70
0
 10
898.494974
 20
303.853779
 30
0.0
 10
700.076435
 20
303.853779
 30
0.0
  0
LWPOLYLINE
  5
155
100
AcDbEntity
  8
Capa_1
 62
7
100
AcDbPolyline
 90
4
 70
0
 10
558.337479
 20
445.592736
 30
0.0
 10
1040.223930
 20
445.592736
 30
0.0
 10
1040.223930
 20
502.282318
 30
0.0
 10
898.494974
 20
502.282318
 30
0.0
  0
LWPOLYLINE
  5
156
100
AcDbEntity
  8
Capa_1
 62
7
100
AcDbPolyline
 90
3
 70
0
 10
700.076435
 20
502.282318
 30
0.0
 10
558.337479
 20
502.282318
 30
0.0
 10
558.337479
 20
445.592736
 30
0.0
  0
LWPOLYLINE
  5
157
100
AcDbEntity
  8
Capa_1
 62
7
100
AcDbPolyline
 90
2
 70
0
 10
700.076435
 20
445.592736
 30
0.0
 10
700.076435
 20
502.282318
 30
0.0
  0
LWPOLYLINE
  5
158
100
AcDbEntity
  8
Capa_1
 62
7
100
AcDbPolyline
 90
2
 70
0
 10
898.494974
 20
502.282318
 30
0.0
 10
898.494974
 20
445.592736
 30
0.0
  0
LWPOLYLINE
  5
159
100
AcDbEntity
  8
Capa_1
 62
7
100
AcDbPolyline
 90
2
 70
0
 10
717.076310
 20
108.265220
 30
0.0
 10
881.485099
 20
108.265220
 30
0.0
  0
LWPOLYLINE
  5
15a
100
AcDbEntity
  8
Capa_1
 62
7
100
AcDbPolyline
 90
3
 70
0
 10
700.076435
 20
105.435240
 30
0.0
 10
714.246331
 20
105.435240
 30
0.0
 10
717.076310
 20
108.265220
 30
0.0
  0
SPLINE
  5
15b
100
AcDbEntity
  8
Capa_1
 62
7
100
AcDbSpline
 70
8
 71
3
 72
8
 73
4
 74
0
 40
0
 40
0
 40
0
 40
0
 40
1
 40
1
 40
1
 40
1
 10
701.486424
 20
105.435240
 30
0.0
 10
701.486424
 20
105.435240
 30
0.0
 10
701.486424
 20
92.675334
 30
0.0
 10
701.486424
 20
92.675334
 30
0.0
  0
SPLINE
  5
15c
100
AcDbEntity
  8
Capa_1
 62
7
100
AcDbSpline
 70
8
 71
3
 72
8
 73
4
 74
0
 40
0
 40
0
 40
0
 40
0
 40
1
 40
1
 40
1
 40
1
 10
701.486424
 20
92.675334
 30
0.0
 10
701.491946
 20
77.022082
 30
0.0
 10
714.182963
 20
64.335542
 30
0.0
 10
729.836216
 20
64.335543
 30
0.0
  0
LWPOLYLINE
  5
15d
100
AcDbEntity
  8
Capa_1
 62
7
100
AcDbPolyline
 90
3
 70
0
 10
881.485099
 20
108.265220
 30
0.0
 10
884.325078
 20
105.435240
 30
0.0
 10
898.494974
 20
105.435240
 30
0.0
  0
SPLINE
  5
15e
100
AcDbEntity
  8
Capa_1
 62
7
100
AcDbSpline
 70
8
 71
3
 72
8
 73
4
 74
0
 40
0
 40
0
 40
0
 40
0
 40
1
 40
1
 40
1
 40
1
 10
868.735193
 20
64.335543
 30
0.0
 10
884.384541
 20
64.341062
 30
0.0
 10
897.069465
 20
77.025986
 30
0.0
 10
897.074984
 20
92.675334
 30
0.0
  0
LWPOLYLINE
  5
15f
100
AcDbEntity
  8
Capa_1
 62
7
100
AcDbPolyline
 90
2
 70
0
 10
729.836216
 20
64.335543
 30
0.0
 10
868.735193
 20
64.335543
 30
0.0
  0
LWPOLYLINE
  5
160
100
AcDbEntity
  8
Capa_1
 62
7
100
AcDbPolyline
 90
2
 70
0
 10
897.074984
 20
92.675334
 30
0.0
 10
897.074984
 20
105.435240
 30
0.0
  0
SPLINE
  5
161
100
AcDbEntity
  8
Capa_1
 62
7
100
AcDbSpline
 70
8
 71
3
 72
8
 73
4
 74
0
 40
0
 40
0
 40
0
 40
0
 40
1
 40
1
 40
1
 40
1
 10
813.455600
 20
502.282318
 30
0.0
 10
812.513274
 20
502.284984
 30
0.0
 10
811.608774
 20
501.911826
 30
0.0
 10
810.942446
 20
501.245498
 30
0.0
  0
SPLINE
  5
162
100
AcDbEntity
  8
Capa_1
 62
7
100
AcDbSpline
 70
8
 71
3
 72
8
 73
4
 74
0
 40
0
 40
0
 40
0
 40
0
 40
1
 40
1
 40
1
 40
1
 10
810.942446
 20
501.245498
 30
0.0
 10
810.276118
 20
500.579170
 30
0.0
 10
809.902960
 20
499.674671
 30
0.0
 10
809.905626
 20
498.732344
 30
0.0
  0
LWPOLYLINE
  5
163
100
AcDbEntity
  8
Capa_1
 62
7
100
AcDbPolyline
 90
22
 70
0
 10
898.494974
 20
105.435240
 30
0.0
 10
898.494974
 20
247.164197
 30
0.0
 10
898.494974
 20
303.853779
 30
0.0
 10
898.494974
 20
445.592736
 30
0.0
 10
899.914963
 20
445.592736
 30
0.0
 10
904.914926
 20
417.242944
 30
0.0
 10
1040.223930
 20
417.242944
 30
0.0
 10
1040.223930
 20
445.592736
 30
0.0
 10
1040.223930
 20
447.002725
 30
0.0
 10
1068.573721
 20
452.002688
 30
0.0
 10
1068.573721
 20
495.862365
 30
0.0
 10
1040.223930
 20
500.862329
 30
0.0
 10
1040.223930
 20
502.282318
 30
0.0
 10
1031.723993
 20
510.782256
 30
0.0
 10
1025.524038
 20
581.651734
 30
0.0
 10
922.284799
 20
581.651734
 30
0.0
 10
905.574922
 20
519.292193
 30
0.0
 10
899.904963
 20
513.622235
 30
0.0
 10
899.904963
 20
502.282318
 30
0.0
 10
898.494974
 20
502.282318
 30
0.0
 10
813.455600
 20
502.282318
 30
0.0
 10
813.455600
 20
502.282318
 30
0.0
  0
SPLINE
  5
164
100
AcDbEntity
  8
Capa_1
 62
7
100
AcDbSpline
 70
8
 71
3
 72
8
 73
4
 74
0
 40
0
 40
0
 40
0
 40
0
 40
1
 40
1
 40
1
 40
1
 10
809.905626
 20
498.732344
 30
0.0
 10
809.905626
 20
495.913114
 30
0.0
 10
808.785691
 20
493.209352
 30
0.0
 10
806.792194
 20
491.215855
 30
0.0
  0
SPLINE
  5
165
100
AcDbEntity
  8
Capa_1
 62
7
100
AcDbSpline
 70
8
 71
3
 72
8
 73
4
 74
0
 40
0
 40
0
 40
0
 40
0
 40
1
 40
1
 40
1
 40
1
 10
806.792194
 20
491.215855
 30
0.0
 10
804.798697
 20
489.222357
 30
0.0
 10
802.094935
 20
488.102423
 30
0.0
 10
799.275704
 20
488.102423
 30
0.0
  0
LWPOLYLINE
  5
166
100
AcDbEntity
  8
Capa_1
 62
7
100
AcDbPolyline
 90
2
 70
1
 10
809.905626
 20
498.732344
 30
0.0
 10
809.905626
 20
498.732344
 30
0.0
  0
SPLINE
  5
167
100
AcDbEntity
  8
Capa_1
 62
7
100
AcDbSpline
 70
8
 71
3
 72
8
 73
4
 74
0
 40
0
 40
0
 40
0
 40
0
 40
1
 40
1
 40
1
 40
1
 10
799.275704
 20
488.102423
 30
0.0
 10
793.404961
 20
488.102423
 30
0.0
 10
788.645783
 20
492.861601
 30
0.0
 10
788.645783
 20
498.732344
 30
0.0
  0
LWPOLYLINE
  5
168
100
AcDbEntity
  8
Capa_1
 62
7
100
AcDbPolyline
 90
1
 70
1
 10
799.275704
 20
488.102423
 30
0.0
  0
SPLINE
  5
169
100
AcDbEntity
  8
Capa_1
 62
7
100
AcDbSpline
 70
8
 71
3
 72
8
 73
4
 74
0
 40
0
 40
0
 40
0
 40
0
 40
1
 40
1
 40
1
 40
1
 10
788.645783
 20
498.732344
 30
0.0
 10
788.645783
 20
498.732344
 30
0.0
 10
788.645783
 20
498.732344
 30
0.0
 10
788.645783
 20
498.732344
 30
0.0
  0
SPLINE
  5
16a
100
AcDbEntity
  8
Capa_1
 62
7
100
AcDbSpline
 70
8
 71
3
 72
8
 73
4
 74
0
 40
0
 40
0
 40
0
 40
0
 40
1
 40
1
 40
1
 40
1
 10
788.645783
 20
498.732344
 30
0.0
 10
788.648440
 20
499.672935
 30
0.0
 10
788.276653
 20
500.575912
 30
0.0
 10
787.612490
 20
501.241951
 30
0.0
  0
SPLINE
  5
16b
100
AcDbEntity
  8
Capa_1
 62
7
100
AcDbSpline
 70
8
 71
3
 72
8
 73
4
 74
0
 40
0
 40
0
 40
0
 40
0
 40
1
 40
1
 40
1
 40
1
 10
787.612490
 20
501.241951
 30
0.0
 10
786.948328
 20
501.907989
 30
0.0
 10
786.046403
 20
502.282322
 30
0.0
 10
785.105809
 20
502.282318
 30
0.0
  0
LWPOLYLINE
  5
16c
100
AcDbEntity
  8
Capa_1
 62
7
100
AcDbPolyline
 90
1
 70
1
 10
788.645783
 20
498.732344
 30
0.0
  0
LWPOLYLINE
  5
16d
100
AcDbEntity
  8
Capa_1
 62
7
100
AcDbPolyline
 90
22
 70
0
 10
785.105809
 20
502.282318
 30
0.0
 10
785.105809
 20
502.282318
 30
0.0
 10
700.066435
 20
502.282318
 30
0.0
 10
698.646445
 20
502.282318
 30
0.0
 10
698.646445
 20
513.622235
 30
0.0
 10
692.986487
 20
519.292193
 30
0.0
 10
676.266610
 20
581.651734
 30
0.0
 10
573.037370
 20
581.651734
 30
0.0
 10
566.837416
 20
510.782256
 30
0.0
 10
558.337479
 20
502.282318
 30
0.0
 10
558.337479
 20
500.862329
 30
0.0
 10
529.997687
 20
495.862365
 30
0.0
 10
529.997687
 20
452.002688
 30
0.0
 10
558.337479
 20
447.002725
 30
0.0
 10
558.337479
 20
445.592736
 30
0.0
 10
558.337479
 20
417.242944
 30
0.0
 10
693.656482
 20
417.242944
 30
0.0
 10
698.656445
 20
445.592736
 30
0.0
 10
700.076435
 20
445.592736
 30
0.0
 10
700.076435
 20
303.853779
 30
0.0
 10
700.076435
 20
247.164197
 30
0.0
 10
700.076435
 20
105.435240
 30
0.0
  0
ENDSEC
  0
SECTION
  2
OBJECTS
  0
DICTIONARY
  5
C
330
0
100
AcDbDictionary
  3
ACAD_GROUP
350
D
  3
ACAD_MLINESTYLE
350
17
  0
DICTIONARY
  5
D
330
C
100
AcDbDictionary
  0
DICTIONARY
  5
1A
330
C
100
AcDbDictionary
  0
DICTIONARY
  5
17
330
C
100
AcDbDictionary
  3
STANDARD
350
18
  0
DICTIONARY
  5
19
330
C
100
AcDbDictionary
  0
ENDSEC
  0
EOF
