<?xml version="1.0" encoding="UTF-8" standalone="no"?>
<svg baseProfile='full' xmlns:dc="http://purl.org/dc/elements/1.1/" xmlns:cc="http://creativecommons.org/ns#" xmlns:rdf="http://www.w3.org/1999/02/22-rdf-syntax-ns#" xmlns:svg="http://www.w3.org/2000/svg" xmlns="http://www.w3.org/2000/svg" xmlns:xlink="http://www.w3.org/1999/xlink" viewBox="0 0 623.62 891.5" id="templatemaker-giftbox" width="22.0cm" height="31.45cm">
<title>Gift Box</title>
<defs>
	<style type='text/css'>
		text{  font-family:  -apple-system, BlinkMacSystemFont, "Segoe UI", Roboto, Helvetica, Arial, sans-serif, "Segoe UI Symbol"; font-weight: 400; }
</style></defs>
<g id="page" transform="translate(0,0)">
	<g class="pagetext" font-size="10">
		<text x="28.346456692913385" y="14.173228346456693"><tspan font-weight="600">Gift Box </tspan>6×6×6 (cm)</text>
		<text x="28.346456692913385" y="881" >templatemaker.nl (C) Please, refer to the very permissive license!</text>
	</g>
	<g id="page-fold" class="fold" fill='none' stroke='#00adee' stroke-width='0.75' >
		<path id="page-fold-hor-1" d="M 226.77 651.47 L 396.85 651.47"/>
		<path id="page-fold-hor-2" d="M 396.85 481.39 L 226.77 481.39"/>
		<path id="page-fold-glue-hor-left" d="M 56.69 311.31 L 566.93 311.31"/>
		<path id="page-fold-glue-vert-left" d="M 566.93 311.31 L 566.93 141.24"/>
		<path id="page-fold-dust-r" d="M 566.93 141.24 L 396.85 141.24"/>
		<path id="page-fold-dust-l" d="M 226.77 141.24 L 56.69 141.24"/>
		<path id="page-fold-glue-vert-right" d="M 56.69 141.24 L 56.69 311.31"/>
		<path id="page-fold-ver-l" d="M 226.77 311.31 L 226.77 141.24"/>
		<path id="page-fold-ver-r" d="M 396.85 141.24 L 396.85 311.31"/>
		<path id="page-fold-tuck-fold" d="M 243.78 818.72 L 379.84 818.72"/>
	</g>
	<g id="page-cut" class="cut" fill='none' stroke='#d41a5a' stroke-width='2' >
		<path id="page-cut-tuck" d="M 226.77 821.55 L 240.94 821.55 L 243.78 818.72"/>
		<path id="page-cut-tuck-slit2" d="M 379.84 818.72 L 382.68 821.55 L 396.85 821.55"/>
		<path id="page-cut-tuck-tuck" d="M 228.19 821.55 L 228.19 834.31 A 28.35 28.35 0 0 0 256.54 862.65 L 367.09 862.65 A 28.35 28.35 0 0 0 395.43 834.31 L 395.43 821.55"/>
		<path id="page-cut-front-left" d="M 396.85 821.55 L 396.85 651.47 L 396.85 481.39 L 396.85 311.31"/>
		<path id="page-cut-left" d="M 396.85 311.31 L 398.27 311.31 L 403.27 339.66 L 566.93 339.66 L 566.93 311.31 L 566.93 309.9 L 595.28 304.9 L 595.28 147.65 L 566.93 142.65 L 566.93 141.24"/>
		<path id="page-cut-north" d="M 566.93 141.24 L 558.43 132.73 L 553.22 73.2 L 417.61 73.2 L 403.93 124.23 L 398.27 129.9 L 398.27 141.24 L 396.85 141.24 L 325.98 141.24 L 325.98 141.24 A 3.54 3.54 0 0 0 322.44 144.78 L 322.44 144.78 L 322.44 144.78 A 10.63 10.63 0 0 1 311.81 155.41 L 311.81 155.41 A 10.63 10.63 0 0 1 301.18 144.78 L 301.18 144.78 L 301.18 144.78 A 3.54 3.54 0 0 0 297.64 141.24 L 297.64 141.24 L 226.77 141.24 L 225.35 141.24 L 225.35 129.9 L 219.68 124.23 L 206.01 73.2 L 70.4 73.2 L 65.19 132.73 L 56.69 141.24"/>
		<path id="page-cut-right" d="M 56.69 141.24 L 56.69 142.65 L 28.35 147.65 L 28.35 304.9 L 56.69 309.9 L 56.69 311.31 L 56.69 339.66 L 220.36 339.66 L 225.35 311.31 L 226.77 311.31"/>
		<path id="page-cut-front-right" d="M 226.77 311.31 L 226.77 481.39 L 226.77 651.47 L 226.77 821.55"/>
	</g>
	<g id="page-labels" class="labels" fill='#75777a' stroke='none' >
<text dominant-baseline="middle" text-anchor="middle" font-family="sans-serif" font-size="1.1" text-decoration="none" transform="translate(482.6,27.85) rotate(-180)"></text><text dominant-baseline="middle" text-anchor="middle" font-family="sans-serif" font-size="1.1" text-decoration="none" transform="translate(141.73,27.85) rotate(-180)"></text>	</g>
</g>
</svg>