<?xml version="1.0" encoding="UTF-8" standalone="no"?>
<svg baseProfile='full' xmlns:dc="http://purl.org/dc/elements/1.1/" xmlns:cc="http://creativecommons.org/ns#" xmlns:rdf="http://www.w3.org/1999/02/22-rdf-syntax-ns#" xmlns:svg="http://www.w3.org/2000/svg" xmlns="http://www.w3.org/2000/svg" xmlns:xlink="http://www.w3.org/1999/xlink" viewBox="0 0 566.93 664.72" id="templatemaker-giftbox" width="20.0cm" height="23.45cm">
<title>Gift Box</title>
<defs>
	<style type='text/css'>
		text{  font-family:  -apple-system, BlinkMacSystemFont, "Segoe UI", Roboto, Helvetica, Arial, sans-serif, "Segoe UI Symbol"; font-weight: 400; }
</style></defs>
<g id="page" transform="translate(0,0)">
	<g class="pagetext" font-size="10">
		<text x="28.346456692913385" y="14.173228346456693"><tspan font-weight="600">Gift Box </tspan>6×5×3 (cm)</text>
		<text x="28.346456692913385" y="654" >templatemaker.nl (C) Please, refer to the very permissive license!</text>
	</g>
	<g id="page-fold" class="fold" fill='none' stroke='#00adee' stroke-width='0.75' >
		<path id="page-fold-hor-1" d="M 198.43 452.82 L 368.5 452.82"/>
		<path id="page-fold-hor-2" d="M 368.5 367.78 L 198.43 367.78"/>
		<path id="page-fold-glue-hor-left" d="M 56.69 226.05 L 510.24 226.05"/>
		<path id="page-fold-glue-vert-left" d="M 510.24 226.05 L 510.24 141.01"/>
		<path id="page-fold-dust-r" d="M 510.24 141.01 L 368.5 141.01"/>
		<path id="page-fold-dust-l" d="M 198.43 141.01 L 56.69 141.01"/>
		<path id="page-fold-glue-vert-right" d="M 56.69 141.01 L 56.69 226.05"/>
		<path id="page-fold-ver-l" d="M 198.43 226.05 L 198.43 141.01"/>
		<path id="page-fold-ver-r" d="M 368.5 141.01 L 368.5 226.05"/>
		<path id="page-fold-tuck-fold" d="M 215.43 591.72 L 351.5 591.72"/>
	</g>
	<g id="page-cut" class="cut" fill='none' stroke='#d41a5a' stroke-width='2' >
		<path id="page-cut-tuck" d="M 198.43 594.55 L 212.6 594.55 L 215.43 591.72"/>
		<path id="page-cut-tuck-slit2" d="M 351.5 591.72 L 354.33 594.55 L 368.5 594.55"/>
		<path id="page-cut-tuck-tuck" d="M 199.84 594.55 L 199.84 607.31 A 28.35 28.35 0 0 0 228.19 635.65 L 338.74 635.65 A 28.35 28.35 0 0 0 367.09 607.31 L 367.09 594.55"/>
		<path id="page-cut-front-left" d="M 368.5 594.55 L 368.5 452.82 L 368.5 367.78 L 368.5 226.05"/>
		<path id="page-cut-left" d="M 368.5 226.05 L 369.92 226.05 L 374.92 254.39 L 510.24 254.39 L 510.24 226.05 L 510.24 224.63 L 538.58 219.63 L 538.58 147.42 L 510.24 142.43 L 510.24 141.01"/>
		<path id="page-cut-north" d="M 510.24 141.01 L 501.73 132.5 L 496.52 72.98 L 389.26 72.98 L 375.59 124.0 L 369.92 129.67 L 369.92 141.01 L 368.5 141.01 L 297.64 141.01 L 297.64 141.01 A 3.54 3.54 0 0 0 294.09 144.55 L 294.09 144.55 L 294.09 144.55 A 10.63 10.63 0 0 1 283.46 155.18 L 283.46 155.18 A 10.63 10.63 0 0 1 272.83 144.55 L 272.83 144.55 L 272.83 144.55 A 3.54 3.54 0 0 0 269.29 141.01 L 269.29 141.01 L 198.42 141.01 L 197.01 141.01 L 197.01 129.67 L 191.34 124.0 L 177.66 72.98 L 70.4 72.98 L 65.19 132.5 L 56.69 141.01"/>
		<path id="page-cut-right" d="M 56.69 141.01 L 56.69 142.43 L 28.35 147.42 L 28.35 219.63 L 56.69 224.63 L 56.69 226.05 L 56.69 254.39 L 192.01 254.39 L 197.01 226.05 L 198.43 226.05"/>
		<path id="page-cut-front-right" d="M 198.43 226.05 L 198.43 367.78 L 198.43 452.82 L 198.43 594.55"/>
	</g>
	<g id="page-labels" class="labels" fill='#75777a' stroke='none' >
<text dominant-baseline="middle" text-anchor="middle" font-family="sans-serif" font-size="1.1" text-decoration="none" transform="translate(440.08,27.62) rotate(-180)"></text><text dominant-baseline="middle" text-anchor="middle" font-family="sans-serif" font-size="1.1" text-decoration="none" transform="translate(127.56,27.62) rotate(-180)"></text>	</g>
</g>
</svg>